<?xml version="1.0" encoding="utf-8"?>
<!-- Generator: Adobe Illustrator 16.0.4, SVG Export Plug-In . SVG Version: 6.00 Build 0)  -->
<!DOCTYPE svg PUBLIC "-//W3C//DTD SVG 1.1//EN" "http://www.w3.org/Graphics/SVG/1.1/DTD/svg11.dtd">
<svg version="1.1" id="レイヤー_1" xmlns="http://www.w3.org/2000/svg" xmlns:xlink="http://www.w3.org/1999/xlink" x="0px"
	 y="0px" width="360px" height="200px" viewBox="0 0 360 200" enable-background="new 0 0 360 200" xml:space="preserve">
<path fill="#74C1B2" d="M59.366,72.688c0-2.75,1.949-6.125,4.33-7.5l49.975-28.854c2.381-1.375,6.279-1.375,8.66,0l49.974,28.854
	c2.381,1.375,4.33,4.75,4.33,7.5v57.705c0,2.75-1.949,6.125-4.33,7.5l-49.974,28.854c-2.381,1.375-6.279,1.375-8.66,0
	l-49.975-28.854c-2.381-1.375-4.33-4.75-4.33-7.5V72.688z"/>
<path fill="#74C1B2" d="M183.365,72.688c0-2.75,1.947-6.125,4.33-7.5l49.975-28.854c2.383-1.375,6.278-1.375,8.66,0l49.975,28.854
	c2.383,1.375,4.33,4.75,4.33,7.5v57.705c0,2.75-1.947,6.125-4.33,7.5l-49.975,28.854c-2.382,1.375-6.277,1.375-8.66,0
	l-49.975-28.854c-2.383-1.375-4.33-4.75-4.33-7.5V72.688z"/>
<g enable-background="new    ">
	<path fill="#FFFFFF" d="M96.938,108.683c1.04,0.599,2.6,1.118,4.238,1.118c2.054,0,3.198-0.962,3.198-2.392
		c0-1.326-0.884-2.106-3.12-2.912c-2.886-1.04-4.732-2.574-4.732-5.097c0-2.86,2.392-5.044,6.188-5.044
		c1.898,0,3.302,0.416,4.212,0.884l-0.78,2.574c-0.624-0.338-1.846-0.832-3.484-0.832c-2.028,0-2.912,1.092-2.912,2.106
		c0,1.352,1.014,1.976,3.354,2.886c3.042,1.144,4.524,2.678,4.524,5.2c0,2.809-2.132,5.252-6.656,5.252
		c-1.846,0-3.77-0.52-4.732-1.092L96.938,108.683z"/>
	<path fill="#FFFFFF" d="M120.312,104.393h-6.604v5.148h7.385v2.626H110.51V94.643h10.192v2.626h-6.995v4.524h6.604V104.393z"/>
	<path fill="#FFFFFF" d="M139.448,103.223c0,5.876-3.562,9.23-8.398,9.23c-4.94,0-8.06-3.771-8.06-8.919
		c0-5.382,3.38-9.178,8.32-9.178C136.432,94.356,139.448,98.23,139.448,103.223z M126.37,103.482c0,3.562,1.794,6.396,4.862,6.396
		c3.094,0,4.836-2.86,4.836-6.526c0-3.302-1.638-6.422-4.836-6.422C128.06,96.931,126.37,99.868,126.37,103.482z"/>
</g>
<g enable-background="new    ">
	<path fill="#FFFFFF" d="M233.896,103.223c0,5.876-3.562,9.23-8.398,9.23c-4.939,0-8.061-3.771-8.061-8.919
		c0-5.382,3.381-9.178,8.32-9.178C230.881,94.356,233.896,98.23,233.896,103.223z M220.818,103.482c0,3.562,1.794,6.396,4.861,6.396
		c3.095,0,4.837-2.86,4.837-6.526c0-3.302-1.638-6.422-4.837-6.422C222.508,96.931,220.818,99.868,220.818,103.482z"/>
	<path fill="#FFFFFF" d="M250.692,111.361c-1.118,0.416-3.302,0.987-5.643,0.987c-2.964,0-5.2-0.754-6.864-2.34
		c-1.56-1.482-2.47-3.796-2.443-6.448c0-5.538,3.951-9.101,9.75-9.101c2.158,0,3.848,0.442,4.654,0.832l-0.702,2.574
		c-0.962-0.416-2.132-0.754-3.979-0.754c-3.744,0-6.37,2.21-6.37,6.292c0,3.979,2.444,6.345,6.084,6.345
		c1.145,0,2.002-0.156,2.418-0.364v-4.368h-3.094v-2.521h6.188V111.361z"/>
	<path fill="#FFFFFF" d="M253.968,94.876c1.144-0.208,2.729-0.363,4.888-0.363c2.34,0,4.057,0.494,5.175,1.43
		c1.04,0.858,1.716,2.236,1.716,3.874c0,1.664-0.52,3.042-1.508,3.979c-1.274,1.273-3.276,1.872-5.539,1.872
		c-0.598,0-1.144-0.026-1.56-0.104v6.604h-3.172V94.876z M257.14,103.041c0.39,0.104,0.91,0.13,1.56,0.13
		c2.393,0,3.849-1.17,3.849-3.225c0-1.95-1.353-2.99-3.562-2.99c-0.885,0-1.509,0.078-1.847,0.156V103.041z"/>
</g>
</svg>
