<?xml version="1.0" encoding="utf-8"?>
<!-- Generator: Adobe Illustrator 16.0.4, SVG Export Plug-In . SVG Version: 6.00 Build 0)  -->
<!DOCTYPE svg PUBLIC "-//W3C//DTD SVG 1.1//EN" "http://www.w3.org/Graphics/SVG/1.1/DTD/svg11.dtd">
<svg version="1.1" id="レイヤー_1" xmlns="http://www.w3.org/2000/svg" xmlns:xlink="http://www.w3.org/1999/xlink" x="0px"
	 y="0px" width="360px" height="200px" viewBox="0 0 360 200" enable-background="new 0 0 360 200" xml:space="preserve">
<path fill="#74C1B2" d="M59.4,72.7c0-2.8,1.9-6.1,4.3-7.5l50-28.9c2.4-1.4,6.3-1.4,8.7,0l50,28.9c2.4,1.4,4.3,4.8,4.3,7.5v57.7
	c0,2.8-1.9,6.1-4.3,7.5l-50,28.9c-2.4,1.4-6.3,1.4-8.7,0l-50-28.9c-2.4-1.4-4.3-4.8-4.3-7.5V72.7z"/>
<path fill="#74C1B2" d="M183.4,72.7c0-2.8,1.9-6.1,4.3-7.5l50-28.9c2.4-1.4,6.3-1.4,8.7,0l50,28.9c2.4,1.4,4.3,4.8,4.3,7.5v57.7
	c0,2.8-1.9,6.1-4.3,7.5l-50,28.9c-2.4,1.4-6.3,1.4-8.7,0l-50-28.9c-2.4-1.4-4.3-4.8-4.3-7.5V72.7z"/>
<g enable-background="new    ">
	<path fill="#FFFFFF" d="M96.9,108.7c1,0.6,2.6,1.1,4.2,1.1c2.1,0,3.2-1,3.2-2.4c0-1.3-0.9-2.1-3.1-2.9c-2.9-1-4.7-2.6-4.7-5.1
		c0-2.9,2.4-5,6.2-5c1.9,0,3.3,0.4,4.2,0.9l-0.8,2.6c-0.6-0.3-1.8-0.8-3.5-0.8c-2,0-2.9,1.1-2.9,2.1c0,1.4,1,2,3.4,2.9
		c3,1.1,4.5,2.7,4.5,5.2c0,2.8-2.1,5.3-6.7,5.3c-1.8,0-3.8-0.5-4.7-1.1L96.9,108.7z"/>
	<path fill="#FFFFFF" d="M120.3,104.4h-6.6v5.1h7.4v2.6h-10.6V94.6h10.2v2.6h-7v4.5h6.6L120.3,104.4L120.3,104.4z"/>
	<path fill="#FFFFFF" d="M139.4,103.2c0,5.9-3.6,9.2-8.4,9.2c-4.9,0-8.1-3.8-8.1-8.9c0-5.4,3.4-9.2,8.3-9.2
		C136.4,94.4,139.4,98.2,139.4,103.2z M126.4,103.5c0,3.6,1.8,6.4,4.9,6.4c3.1,0,4.8-2.9,4.8-6.5c0-3.3-1.6-6.4-4.8-6.4
		C128.1,96.9,126.4,99.9,126.4,103.5z"/>
</g>
<g enable-background="new    ">
	<path fill="#FFFFFF" d="M233.9,103.2c0,5.9-3.6,9.2-8.4,9.2c-4.9,0-8.1-3.8-8.1-8.9c0-5.4,3.4-9.2,8.3-9.2
		C230.9,94.4,233.9,98.2,233.9,103.2z M220.8,103.5c0,3.6,1.8,6.4,4.9,6.4c3.1,0,4.8-2.9,4.8-6.5c0-3.3-1.6-6.4-4.8-6.4
		C222.5,96.9,220.8,99.9,220.8,103.5z"/>
	<path fill="#FFFFFF" d="M250.7,111.4c-1.1,0.4-3.3,1-5.6,1c-3,0-5.2-0.8-6.9-2.3c-1.6-1.5-2.5-3.8-2.4-6.4c0-5.5,4-9.1,9.8-9.1
		c2.2,0,3.8,0.4,4.7,0.8l-0.7,2.6c-1-0.4-2.1-0.8-4-0.8c-3.7,0-6.4,2.2-6.4,6.3c0,4,2.4,6.3,6.1,6.3c1.1,0,2-0.2,2.4-0.4V105h-3.1
		v-2.5h6.2V111.4L250.7,111.4z"/>
	<path fill="#FFFFFF" d="M254,94.9c1.1-0.2,2.7-0.4,4.9-0.4c2.3,0,4.1,0.5,5.2,1.4c1,0.9,1.7,2.2,1.7,3.9c0,1.7-0.5,3-1.5,4
		c-1.3,1.3-3.3,1.9-5.5,1.9c-0.6,0-1.1,0-1.6-0.1v6.6H254V94.9L254,94.9z M257.1,103c0.4,0.1,0.9,0.1,1.6,0.1c2.4,0,3.8-1.2,3.8-3.2
		c0-1.9-1.4-3-3.6-3c-0.9,0-1.5,0.1-1.8,0.2V103z"/>
</g>
</svg>
