<?xml version="1.0" encoding="utf-8"?>
<!-- Generator: Adobe Illustrator 16.0.4, SVG Export Plug-In . SVG Version: 6.00 Build 0)  -->
<!DOCTYPE svg PUBLIC "-//W3C//DTD SVG 1.1//EN" "http://www.w3.org/Graphics/SVG/1.1/DTD/svg11.dtd">
<svg version="1.1" id="レイヤー_1" xmlns="http://www.w3.org/2000/svg" xmlns:xlink="http://www.w3.org/1999/xlink" x="0px"
	 y="0px" width="360px" height="200px" viewBox="0 0 360 200" enable-background="new 0 0 360 200" xml:space="preserve">
<g enable-background="new    ">
	<path fill="#444444" d="M11.152,26.026c0.702,0.432,1.729,0.792,2.809,0.792c1.603,0,2.539-0.847,2.539-2.07
		c0-1.135-0.648-1.783-2.287-2.413c-1.981-0.702-3.205-1.729-3.205-3.439c0-1.891,1.566-3.295,3.925-3.295
		c1.242,0,2.143,0.288,2.683,0.595l-0.432,1.278c-0.396-0.216-1.207-0.576-2.305-0.576c-1.656,0-2.287,0.99-2.287,1.818
		c0,1.135,0.738,1.692,2.413,2.341c2.053,0.792,3.097,1.782,3.097,3.565c0,1.872-1.387,3.492-4.25,3.492
		c-1.17,0-2.449-0.342-3.097-0.773L11.152,26.026z"/>
	<path fill="#444444" d="M22.043,16.717v2.503h2.269v1.207h-2.269v4.699c0,1.08,0.306,1.692,1.188,1.692
		c0.414,0,0.72-0.054,0.918-0.108l0.072,1.188c-0.306,0.126-0.792,0.216-1.404,0.216c-0.738,0-1.332-0.233-1.71-0.666
		c-0.45-0.468-0.612-1.242-0.612-2.269v-4.753h-1.35V19.22h1.35v-2.088L22.043,16.717z"/>
	<path fill="#444444" d="M30.917,27.935l-0.126-1.099h-0.054c-0.486,0.685-1.422,1.297-2.665,1.297
		c-1.765,0-2.665-1.242-2.665-2.503c0-2.106,1.873-3.259,5.239-3.241v-0.18c0-0.721-0.198-2.017-1.98-2.017
		c-0.81,0-1.656,0.252-2.269,0.648l-0.36-1.045c0.72-0.468,1.765-0.774,2.863-0.774c2.665,0,3.313,1.819,3.313,3.565v3.259
		c0,0.757,0.036,1.495,0.144,2.089H30.917z M30.684,23.487c-1.729-0.036-3.691,0.27-3.691,1.963c0,1.026,0.684,1.512,1.494,1.512
		c1.134,0,1.854-0.72,2.107-1.458c0.054-0.162,0.09-0.342,0.09-0.504V23.487z"/>
	<path fill="#444444" d="M34.769,21.938c0-1.026-0.018-1.908-0.072-2.719h1.387l0.054,1.711h0.072
		c0.396-1.171,1.351-1.909,2.413-1.909c0.18,0,0.306,0.019,0.45,0.055v1.494c-0.162-0.036-0.324-0.054-0.54-0.054
		c-1.117,0-1.909,0.846-2.125,2.034c-0.036,0.216-0.072,0.469-0.072,0.738v4.646h-1.566V21.938z"/>
	<path fill="#444444" d="M42.995,16.717v2.503h2.269v1.207h-2.269v4.699c0,1.08,0.306,1.692,1.188,1.692
		c0.414,0,0.72-0.054,0.918-0.108l0.072,1.188c-0.306,0.126-0.792,0.216-1.404,0.216c-0.738,0-1.332-0.233-1.71-0.666
		c-0.45-0.468-0.612-1.242-0.612-2.269v-4.753h-1.35V19.22h1.35v-2.088L42.995,16.717z"/>
	<path fill="#444444" d="M50.914,15.961c0.792-0.162,1.926-0.252,3.007-0.252c1.674,0,2.755,0.306,3.511,0.99
		c0.612,0.54,0.955,1.368,0.955,2.305c0,1.603-1.008,2.665-2.287,3.097v0.055c0.936,0.323,1.494,1.188,1.782,2.448
		c0.396,1.692,0.684,2.863,0.937,3.331h-1.621c-0.198-0.342-0.468-1.387-0.81-2.898c-0.36-1.675-1.009-2.305-2.431-2.359H52.48
		v5.258h-1.566V15.961z M52.48,21.488h1.603c1.674,0,2.736-0.918,2.736-2.305c0-1.566-1.134-2.25-2.791-2.269
		c-0.756,0-1.296,0.072-1.548,0.145V21.488z"/>
	<path fill="#444444" d="M61.498,23.865c0.036,2.143,1.404,3.025,2.989,3.025c1.134,0,1.818-0.198,2.413-0.45l0.27,1.134
		c-0.558,0.252-1.512,0.54-2.899,0.54c-2.683,0-4.285-1.764-4.285-4.393s1.549-4.7,4.087-4.7c2.845,0,3.601,2.503,3.601,4.105
		c0,0.324-0.036,0.576-0.054,0.738H61.498z M66.144,22.731c0.018-1.009-0.415-2.575-2.197-2.575c-1.603,0-2.305,1.477-2.431,2.575
		H66.144z"/>
	<path fill="#444444" d="M69.633,21.579c0-0.9-0.018-1.639-0.072-2.359h1.405l0.09,1.44h0.036c0.432-0.828,1.44-1.639,2.881-1.639
		c1.206,0,3.079,0.721,3.079,3.71v5.203h-1.584v-5.023c0-1.404-0.522-2.575-2.017-2.575c-1.044,0-1.854,0.738-2.125,1.621
		c-0.072,0.198-0.108,0.468-0.108,0.738v5.239h-1.584V21.579z"/>
	<path fill="#444444" d="M87.15,15.15v10.533c0,0.774,0.018,1.657,0.072,2.251h-1.422l-0.072-1.513h-0.036
		c-0.486,0.973-1.549,1.711-2.971,1.711c-2.106,0-3.727-1.782-3.727-4.43c-0.018-2.898,1.783-4.682,3.907-4.682
		c1.333,0,2.233,0.631,2.629,1.333h0.036V15.15H87.15z M85.565,22.767c0-0.197-0.018-0.468-0.072-0.666
		c-0.234-1.008-1.098-1.836-2.287-1.836c-1.639,0-2.611,1.44-2.611,3.366c0,1.765,0.864,3.224,2.575,3.224
		c1.062,0,2.035-0.702,2.323-1.891c0.054-0.216,0.072-0.433,0.072-0.685V22.767z"/>
	<path fill="#444444" d="M90.658,23.865c0.036,2.143,1.404,3.025,2.989,3.025c1.134,0,1.818-0.198,2.413-0.45l0.27,1.134
		c-0.558,0.252-1.512,0.54-2.898,0.54c-2.683,0-4.286-1.764-4.286-4.393s1.548-4.7,4.087-4.7c2.845,0,3.601,2.503,3.601,4.105
		c0,0.324-0.036,0.576-0.054,0.738H90.658z M95.303,22.731c0.018-1.009-0.414-2.575-2.196-2.575c-1.603,0-2.305,1.477-2.431,2.575
		H95.303z"/>
	<path fill="#444444" d="M98.793,21.938c0-1.026-0.018-1.908-0.072-2.719h1.387l0.054,1.711h0.072
		c0.396-1.171,1.351-1.909,2.413-1.909c0.18,0,0.306,0.019,0.45,0.055v1.494c-0.162-0.036-0.324-0.054-0.54-0.054
		c-1.117,0-1.909,0.846-2.125,2.034c-0.036,0.216-0.072,0.469-0.072,0.738v4.646h-1.566V21.938z"/>
</g>
<g enable-background="new    ">
	<path fill="#444444" d="M20.606,114.048c-0.702,0.252-2.088,0.666-3.727,0.666c-1.836,0-3.349-0.468-4.537-1.603
		c-1.044-1.008-1.692-2.629-1.692-4.52c0.018-3.619,2.502-6.266,6.572-6.266c1.404,0,2.502,0.307,3.025,0.559l-0.378,1.278
		c-0.648-0.288-1.458-0.522-2.683-0.522c-2.953,0-4.879,1.837-4.879,4.88c0,3.078,1.854,4.897,4.682,4.897
		c1.026,0,1.729-0.145,2.088-0.324v-3.619h-2.467v-1.261h3.997V114.048z"/>
	<path fill="#444444" d="M30.919,110.158c0,3.224-2.232,4.628-4.339,4.628c-2.358,0-4.177-1.729-4.177-4.483
		c0-2.917,1.909-4.628,4.321-4.628C29.227,105.675,30.919,107.494,30.919,110.158z M24.005,110.249c0,1.908,1.098,3.349,2.647,3.349
		c1.512,0,2.646-1.423,2.646-3.385c0-1.477-0.738-3.35-2.61-3.35C24.815,106.863,24.005,108.592,24.005,110.249z"/>
	<path fill="#444444" d="M40.801,110.158c0,3.224-2.232,4.628-4.339,4.628c-2.358,0-4.177-1.729-4.177-4.483
		c0-2.917,1.909-4.628,4.321-4.628C39.109,105.675,40.801,107.494,40.801,110.158z M33.887,110.249c0,1.908,1.098,3.349,2.647,3.349
		c1.512,0,2.646-1.423,2.646-3.385c0-1.477-0.738-3.35-2.61-3.35C34.697,106.863,33.887,108.592,33.887,110.249z"/>
	<path fill="#444444" d="M50.305,105.873c-0.036,0.631-0.072,1.333-0.072,2.395v5.06c0,1.999-0.396,3.224-1.242,3.979
		c-0.846,0.792-2.071,1.044-3.169,1.044c-1.044,0-2.197-0.252-2.899-0.72l0.396-1.206c0.576,0.359,1.477,0.684,2.557,0.684
		c1.62,0,2.809-0.846,2.809-3.043v-0.972h-0.036c-0.486,0.81-1.422,1.458-2.772,1.458c-2.161,0-3.709-1.837-3.709-4.249
		c0-2.953,1.927-4.628,3.925-4.628c1.513,0,2.341,0.793,2.719,1.513h0.036l0.072-1.314H50.305z M48.667,109.312
		c0-0.271-0.018-0.504-0.09-0.721c-0.288-0.918-1.062-1.674-2.215-1.674c-1.512,0-2.593,1.278-2.593,3.295
		c0,1.71,0.864,3.133,2.575,3.133c0.973,0,1.854-0.612,2.197-1.621c0.09-0.27,0.126-0.576,0.126-0.846V109.312z"/>
	<path fill="#444444" d="M52.859,101.804h1.584v12.784h-1.584V101.804z"/>
	<path fill="#444444" d="M57.989,110.519c0.036,2.143,1.404,3.025,2.989,3.025c1.134,0,1.818-0.198,2.413-0.45l0.27,1.134
		c-0.558,0.252-1.512,0.54-2.899,0.54c-2.683,0-4.285-1.764-4.285-4.393s1.549-4.7,4.087-4.7c2.845,0,3.601,2.503,3.601,4.105
		c0,0.324-0.036,0.576-0.054,0.738H57.989z M62.635,109.385c0.018-1.009-0.415-2.575-2.197-2.575c-1.603,0-2.305,1.477-2.431,2.575
		H62.635z"/>
	<path fill="#444444" d="M69.994,102.597c0.756-0.126,1.747-0.234,3.007-0.234c1.548,0,2.683,0.36,3.403,1.008
		c0.666,0.576,1.062,1.459,1.062,2.539c0,1.099-0.324,1.963-0.937,2.593c-0.828,0.883-2.179,1.332-3.709,1.332
		c-0.468,0-0.9-0.018-1.26-0.107v4.861h-1.567V102.597z M71.561,108.448c0.342,0.09,0.774,0.126,1.296,0.126
		c1.891,0,3.043-0.918,3.043-2.593c0-1.603-1.135-2.377-2.863-2.377c-0.684,0-1.206,0.054-1.476,0.126V108.448z"/>
	<path fill="#444444" d="M83.874,114.588l-0.126-1.099h-0.054c-0.486,0.685-1.423,1.297-2.665,1.297
		c-1.765,0-2.665-1.242-2.665-2.503c0-2.106,1.873-3.259,5.239-3.241v-0.18c0-0.721-0.198-2.017-1.98-2.017
		c-0.81,0-1.657,0.252-2.269,0.648l-0.36-1.045c0.72-0.468,1.765-0.774,2.863-0.774c2.665,0,3.313,1.819,3.313,3.565v3.259
		c0,0.757,0.036,1.495,0.144,2.089H83.874z M83.64,110.141c-1.729-0.036-3.691,0.27-3.691,1.963c0,1.026,0.684,1.512,1.494,1.512
		c1.134,0,1.854-0.72,2.107-1.458c0.054-0.162,0.09-0.342,0.09-0.504V110.141z"/>
	<path fill="#444444" d="M95.233,105.873c-0.036,0.631-0.072,1.333-0.072,2.395v5.06c0,1.999-0.396,3.224-1.242,3.979
		c-0.846,0.792-2.071,1.044-3.169,1.044c-1.044,0-2.197-0.252-2.899-0.72l0.396-1.206c0.576,0.359,1.477,0.684,2.557,0.684
		c1.62,0,2.809-0.846,2.809-3.043v-0.972h-0.036c-0.486,0.81-1.422,1.458-2.772,1.458c-2.161,0-3.709-1.837-3.709-4.249
		c0-2.953,1.927-4.628,3.925-4.628c1.513,0,2.341,0.793,2.719,1.513h0.036l0.072-1.314H95.233z M93.594,109.312
		c0-0.271-0.018-0.504-0.09-0.721c-0.288-0.918-1.062-1.674-2.215-1.674c-1.512,0-2.593,1.278-2.593,3.295
		c0,1.71,0.864,3.133,2.575,3.133c0.973,0,1.854-0.612,2.197-1.621c0.09-0.27,0.126-0.576,0.126-0.846V109.312z"/>
	<path fill="#444444" d="M98.668,110.519c0.036,2.143,1.404,3.025,2.989,3.025c1.134,0,1.818-0.198,2.413-0.45l0.27,1.134
		c-0.558,0.252-1.512,0.54-2.898,0.54c-2.683,0-4.286-1.764-4.286-4.393s1.548-4.7,4.087-4.7c2.845,0,3.601,2.503,3.601,4.105
		c0,0.324-0.036,0.576-0.054,0.738H98.668z M103.313,109.385c0.018-1.009-0.414-2.575-2.196-2.575c-1.603,0-2.305,1.477-2.431,2.575
		H103.313z"/>
	<path fill="#444444" d="M106.642,112.68c0.702,0.432,1.729,0.792,2.809,0.792c1.602,0,2.539-0.847,2.539-2.07
		c0-1.135-0.648-1.783-2.287-2.413c-1.98-0.702-3.205-1.729-3.205-3.439c0-1.891,1.566-3.295,3.925-3.295
		c1.242,0,2.143,0.288,2.683,0.595l-0.432,1.278c-0.396-0.216-1.206-0.576-2.305-0.576c-1.656,0-2.287,0.99-2.287,1.818
		c0,1.135,0.738,1.692,2.413,2.341c2.053,0.792,3.097,1.782,3.097,3.565c0,1.872-1.387,3.492-4.25,3.492
		c-1.17,0-2.449-0.342-3.097-0.773L106.642,112.68z"/>
	<path fill="#444444" d="M115.678,108.718c0-1.116-0.036-2.017-0.072-2.845h1.422l0.072,1.495h0.036
		c0.648-1.062,1.674-1.693,3.097-1.693c2.107,0,3.691,1.783,3.691,4.43c0,3.133-1.909,4.682-3.961,4.682
		c-1.152,0-2.161-0.504-2.683-1.368h-0.036v4.735h-1.566V108.718z M117.245,111.041c0,0.234,0.036,0.45,0.072,0.648
		c0.288,1.098,1.243,1.854,2.377,1.854c1.674,0,2.647-1.369,2.647-3.367c0-1.747-0.918-3.241-2.593-3.241
		c-1.081,0-2.089,0.774-2.395,1.963c-0.054,0.198-0.108,0.432-0.108,0.648V111.041z"/>
	<path fill="#444444" d="M126.802,110.519c0.036,2.143,1.404,3.025,2.989,3.025c1.134,0,1.818-0.198,2.413-0.45l0.27,1.134
		c-0.558,0.252-1.512,0.54-2.898,0.54c-2.683,0-4.286-1.764-4.286-4.393s1.548-4.7,4.087-4.7c2.845,0,3.601,2.503,3.601,4.105
		c0,0.324-0.036,0.576-0.054,0.738H126.802z M131.447,109.385c0.018-1.009-0.414-2.575-2.196-2.575
		c-1.603,0-2.305,1.477-2.431,2.575H131.447z"/>
	<path fill="#444444" d="M135.82,110.519c0.036,2.143,1.404,3.025,2.989,3.025c1.134,0,1.818-0.198,2.413-0.45l0.27,1.134
		c-0.558,0.252-1.512,0.54-2.898,0.54c-2.683,0-4.286-1.764-4.286-4.393s1.548-4.7,4.087-4.7c2.845,0,3.601,2.503,3.601,4.105
		c0,0.324-0.036,0.576-0.054,0.738H135.82z M140.465,109.385c0.018-1.009-0.414-2.575-2.196-2.575c-1.603,0-2.305,1.477-2.431,2.575
		H140.465z"/>
	<path fill="#444444" d="M151.482,101.804v10.533c0,0.774,0.018,1.657,0.072,2.251h-1.422l-0.072-1.513h-0.036
		c-0.486,0.973-1.549,1.711-2.971,1.711c-2.106,0-3.727-1.782-3.727-4.43c-0.018-2.898,1.783-4.682,3.907-4.682
		c1.333,0,2.233,0.631,2.629,1.333h0.036v-5.204H151.482z M149.897,109.42c0-0.197-0.018-0.468-0.072-0.666
		c-0.234-1.008-1.098-1.836-2.287-1.836c-1.639,0-2.611,1.44-2.611,3.366c0,1.765,0.864,3.224,2.575,3.224
		c1.062,0,2.035-0.702,2.323-1.891c0.054-0.216,0.072-0.433,0.072-0.685V109.42z"/>
	<path fill="#444444" d="M159.544,102.452v12.136h-1.566v-12.136H159.544z"/>
	<path fill="#444444" d="M162.405,108.232c0-0.9-0.018-1.639-0.072-2.359h1.404l0.09,1.44h0.036c0.433-0.828,1.44-1.639,2.881-1.639
		c1.207,0,3.079,0.721,3.079,3.71v5.203h-1.584v-5.023c0-1.404-0.522-2.575-2.017-2.575c-1.045,0-1.854,0.738-2.125,1.621
		c-0.072,0.198-0.108,0.468-0.108,0.738v5.239h-1.584V108.232z"/>
	<path fill="#444444" d="M172.18,112.968c0.468,0.306,1.296,0.63,2.088,0.63c1.152,0,1.693-0.576,1.693-1.297
		c0-0.756-0.45-1.17-1.621-1.602c-1.566-0.559-2.305-1.423-2.305-2.467c0-1.405,1.135-2.558,3.007-2.558
		c0.883,0,1.656,0.253,2.143,0.541l-0.396,1.152c-0.343-0.217-0.973-0.505-1.783-0.505c-0.936,0-1.458,0.54-1.458,1.188
		c0,0.721,0.522,1.045,1.656,1.477c1.513,0.576,2.287,1.332,2.287,2.629c0,1.53-1.188,2.61-3.259,2.61
		c-0.955,0-1.837-0.233-2.449-0.594L172.18,112.968z"/>
	<path fill="#444444" d="M181.288,103.425c0.018,0.54-0.378,0.972-1.009,0.972c-0.558,0-0.954-0.432-0.954-0.972
		c0-0.559,0.414-0.99,0.99-0.99C180.91,102.435,181.288,102.866,181.288,103.425z M179.523,114.588v-8.715h1.584v8.715H179.523z"/>
	<path fill="#444444" d="M191.243,105.873c-0.035,0.631-0.071,1.333-0.071,2.395v5.06c0,1.999-0.396,3.224-1.243,3.979
		c-0.846,0.792-2.07,1.044-3.169,1.044c-1.044,0-2.196-0.252-2.898-0.72l0.396-1.206c0.576,0.359,1.476,0.684,2.557,0.684
		c1.62,0,2.809-0.846,2.809-3.043v-0.972h-0.036c-0.486,0.81-1.422,1.458-2.772,1.458c-2.161,0-3.709-1.837-3.709-4.249
		c0-2.953,1.926-4.628,3.925-4.628c1.513,0,2.341,0.793,2.719,1.513h0.036l0.072-1.314H191.243z M189.605,109.312
		c0-0.271-0.019-0.504-0.091-0.721c-0.288-0.918-1.062-1.674-2.214-1.674c-1.513,0-2.593,1.278-2.593,3.295
		c0,1.71,0.864,3.133,2.574,3.133c0.973,0,1.854-0.612,2.197-1.621c0.09-0.27,0.126-0.576,0.126-0.846V109.312z"/>
	<path fill="#444444" d="M193.797,101.804h1.584v5.438h0.036c0.252-0.45,0.648-0.847,1.135-1.117c0.468-0.27,1.026-0.45,1.62-0.45
		c1.171,0,3.043,0.721,3.043,3.728v5.186h-1.584v-5.006c0-1.404-0.522-2.593-2.017-2.593c-1.026,0-1.837,0.721-2.125,1.585
		c-0.09,0.216-0.108,0.45-0.108,0.756v5.258h-1.584V101.804z"/>
	<path fill="#444444" d="M205.623,103.37v2.503h2.269v1.207h-2.269v4.699c0,1.08,0.307,1.692,1.188,1.692
		c0.414,0,0.721-0.054,0.918-0.108l0.072,1.188c-0.306,0.126-0.792,0.216-1.404,0.216c-0.738,0-1.332-0.233-1.71-0.666
		c-0.45-0.468-0.612-1.242-0.612-2.269v-4.753h-1.351v-1.207h1.351v-2.088L205.623,103.37z"/>
	<path fill="#444444" d="M209.457,112.968c0.468,0.306,1.296,0.63,2.088,0.63c1.152,0,1.693-0.576,1.693-1.297
		c0-0.756-0.45-1.17-1.621-1.602c-1.566-0.559-2.305-1.423-2.305-2.467c0-1.405,1.135-2.558,3.007-2.558
		c0.883,0,1.656,0.253,2.143,0.541l-0.396,1.152c-0.343-0.217-0.973-0.505-1.783-0.505c-0.936,0-1.458,0.54-1.458,1.188
		c0,0.721,0.522,1.045,1.656,1.477c1.513,0.576,2.287,1.332,2.287,2.629c0,1.53-1.188,2.61-3.259,2.61
		c-0.955,0-1.837-0.233-2.449-0.594L209.457,112.968z"/>
	<path fill="#444444" d="M220.454,112.68c0.702,0.432,1.729,0.792,2.809,0.792c1.603,0,2.539-0.847,2.539-2.07
		c0-1.135-0.648-1.783-2.287-2.413c-1.98-0.702-3.205-1.729-3.205-3.439c0-1.891,1.567-3.295,3.926-3.295
		c1.242,0,2.143,0.288,2.683,0.595l-0.432,1.278c-0.396-0.216-1.207-0.576-2.305-0.576c-1.657,0-2.287,0.99-2.287,1.818
		c0,1.135,0.738,1.692,2.413,2.341c2.053,0.792,3.097,1.782,3.097,3.565c0,1.872-1.387,3.492-4.249,3.492
		c-1.171,0-2.449-0.342-3.098-0.773L220.454,112.68z"/>
	<path fill="#444444" d="M235.81,114.264c-0.414,0.216-1.332,0.504-2.503,0.504c-2.629,0-4.339-1.782-4.339-4.447
		c0-2.683,1.836-4.627,4.681-4.627c0.937,0,1.765,0.234,2.197,0.45l-0.36,1.225c-0.378-0.217-0.973-0.415-1.837-0.415
		c-1.998,0-3.078,1.477-3.078,3.296c0,2.017,1.296,3.259,3.024,3.259c0.9,0,1.494-0.234,1.944-0.433L235.81,114.264z"/>
	<path fill="#444444" d="M245.44,110.158c0,3.224-2.233,4.628-4.34,4.628c-2.358,0-4.177-1.729-4.177-4.483
		c0-2.917,1.908-4.628,4.321-4.628C243.747,105.675,245.44,107.494,245.44,110.158z M238.526,110.249
		c0,1.908,1.098,3.349,2.646,3.349c1.513,0,2.646-1.423,2.646-3.385c0-1.477-0.738-3.35-2.61-3.35
		C239.336,106.863,238.526,108.592,238.526,110.249z"/>
	<path fill="#444444" d="M247.437,108.592c0-1.026-0.018-1.908-0.072-2.719h1.387l0.054,1.711h0.072
		c0.396-1.171,1.351-1.909,2.413-1.909c0.18,0,0.306,0.019,0.449,0.055v1.494c-0.161-0.036-0.323-0.054-0.54-0.054
		c-1.116,0-1.908,0.846-2.124,2.034c-0.036,0.216-0.072,0.469-0.072,0.738v4.646h-1.566V108.592z"/>
	<path fill="#444444" d="M254.023,110.519c0.036,2.143,1.405,3.025,2.989,3.025c1.135,0,1.818-0.198,2.413-0.45l0.27,1.134
		c-0.558,0.252-1.513,0.54-2.898,0.54c-2.683,0-4.285-1.764-4.285-4.393s1.548-4.7,4.087-4.7c2.845,0,3.601,2.503,3.601,4.105
		c0,0.324-0.035,0.576-0.054,0.738H254.023z M258.669,109.385c0.019-1.009-0.414-2.575-2.196-2.575
		c-1.603,0-2.305,1.477-2.431,2.575H258.669z"/>
	<path fill="#444444" d="M269.415,102.092c-1.314,1.765-2.27,4.105-2.27,7.364c0,3.205,0.99,5.51,2.27,7.311h-1.243
		c-1.134-1.494-2.358-3.799-2.358-7.311c0.018-3.547,1.225-5.852,2.358-7.364H269.415z"/>
	<path fill="#444444" d="M281.369,109.258c-0.09-1.692-0.198-3.727-0.181-5.239h-0.054c-0.414,1.423-0.918,2.935-1.53,4.609
		l-2.143,5.888h-1.188l-1.963-5.779c-0.576-1.711-1.062-3.277-1.404-4.718h-0.036c-0.036,1.513-0.126,3.547-0.233,5.366
		l-0.324,5.203h-1.495l0.847-12.136h1.999l2.07,5.87c0.504,1.494,0.918,2.826,1.225,4.087h0.054
		c0.306-1.225,0.738-2.557,1.278-4.087l2.16-5.87h1.999l0.756,12.136h-1.53L281.369,109.258z"/>
	<path fill="#444444" d="M293.554,110.158c0,3.224-2.233,4.628-4.34,4.628c-2.358,0-4.177-1.729-4.177-4.483
		c0-2.917,1.908-4.628,4.321-4.628C291.86,105.675,293.554,107.494,293.554,110.158z M286.64,110.249
		c0,1.908,1.098,3.349,2.646,3.349c1.513,0,2.646-1.423,2.646-3.385c0-1.477-0.738-3.35-2.61-3.35
		C287.449,106.863,286.64,108.592,286.64,110.249z"/>
	<path fill="#444444" d="M295.478,114.588c0.036-0.594,0.072-1.477,0.072-2.251v-10.533h1.566v5.474h0.036
		c0.558-0.972,1.566-1.603,2.971-1.603c2.161,0,3.691,1.801,3.673,4.448c0,3.114-1.962,4.663-3.907,4.663
		c-1.26,0-2.269-0.486-2.917-1.639h-0.054l-0.072,1.44H295.478z M297.116,111.095c0,0.198,0.036,0.396,0.072,0.576
		c0.306,1.099,1.225,1.854,2.377,1.854c1.656,0,2.646-1.351,2.646-3.349c0-1.747-0.9-3.241-2.593-3.241
		c-1.08,0-2.089,0.738-2.413,1.944c-0.036,0.181-0.09,0.396-0.09,0.648V111.095z"/>
	<path fill="#444444" d="M307.556,103.425c0.018,0.54-0.378,0.972-1.009,0.972c-0.558,0-0.954-0.432-0.954-0.972
		c0-0.559,0.414-0.99,0.99-0.99C307.178,102.435,307.556,102.866,307.556,103.425z M305.791,114.588v-8.715h1.584v8.715H305.791z"/>
	<path fill="#444444" d="M310.003,101.804h1.584v12.784h-1.584V101.804z"/>
	<path fill="#444444" d="M315.133,110.519c0.036,2.143,1.405,3.025,2.989,3.025c1.135,0,1.818-0.198,2.413-0.45l0.27,1.134
		c-0.558,0.252-1.513,0.54-2.898,0.54c-2.683,0-4.285-1.764-4.285-4.393s1.548-4.7,4.087-4.7c2.845,0,3.601,2.503,3.601,4.105
		c0,0.324-0.035,0.576-0.054,0.738H315.133z M319.778,109.385c0.019-1.009-0.414-2.575-2.196-2.575
		c-1.603,0-2.305,1.477-2.431,2.575H319.778z"/>
	<path fill="#444444" d="M322.314,116.767c1.278-1.782,2.269-4.123,2.269-7.364c0-3.223-0.973-5.527-2.269-7.311h1.224
		c1.152,1.477,2.359,3.781,2.359,7.328c0,3.529-1.207,5.816-2.359,7.347H322.314z"/>
</g>
<g enable-background="new    ">
	<path fill="#808080" d="M10.33,50.686l4.115-6.018v-0.033h-3.763v-0.803h5.006v0.583l-4.093,5.996v0.033h4.147v0.803H10.33V50.686z
		"/>
	<path fill="#808080" d="M20.759,47.771h-2.882v2.674h3.212v0.803h-4.17v-7.415h4.005v0.803h-3.047v2.344h2.882V47.771z"/>
	<path fill="#808080" d="M22.331,51.247v-7.415h1.045l2.376,3.752c0.55,0.869,0.979,1.649,1.331,2.409l0.022-0.012
		c-0.088-0.989-0.11-1.892-0.11-3.047v-3.103h0.902v7.415h-0.968l-2.354-3.763c-0.517-0.825-1.012-1.672-1.386-2.476l-0.033,0.012
		c0.055,0.935,0.077,1.826,0.077,3.059v3.168H22.331z"/>
	<path fill="#808080" d="M33.661,44.998h-0.022l-1.243,0.671l-0.187-0.736l1.562-0.837h0.825v7.151h-0.936V44.998z"/>
	<path fill="#808080" d="M37.28,50.675c0-0.407,0.275-0.693,0.66-0.693c0.385,0,0.649,0.286,0.649,0.693
		c0,0.396-0.253,0.693-0.66,0.693C37.543,51.368,37.28,51.071,37.28,50.675z"/>
	<path fill="#808080" d="M40.239,45.922l0.759,1.145c0.198,0.297,0.363,0.572,0.539,0.869h0.033c0.176-0.319,0.352-0.594,0.528-0.88
		l0.748-1.134h1.045l-1.815,2.575l1.871,2.75h-1.101l-0.781-1.199c-0.209-0.308-0.385-0.605-0.572-0.924h-0.022
		c-0.176,0.318-0.363,0.604-0.561,0.924l-0.77,1.199h-1.067l1.893-2.718l-1.805-2.607H40.239z"/>
</g>
<g enable-background="new    ">
	<path fill="#74C1B2" d="M10.33,76.677l4.115-6.018v-0.033h-3.763v-0.803h5.006v0.583l-4.093,5.996v0.033h4.147v0.803H10.33V76.677z
		"/>
	<path fill="#74C1B2" d="M20.759,73.762h-2.882v2.674h3.212v0.803h-4.17v-7.415h4.005v0.803h-3.047v2.344h2.882V73.762z"/>
	<path fill="#74C1B2" d="M22.331,77.238v-7.415h1.045l2.376,3.752c0.55,0.869,0.979,1.649,1.331,2.409l0.022-0.012
		c-0.088-0.989-0.11-1.892-0.11-3.047v-3.103h0.902v7.415h-0.968l-2.354-3.763c-0.517-0.825-1.012-1.672-1.386-2.476l-0.033,0.012
		c0.055,0.935,0.077,1.826,0.077,3.059v3.168H22.331z"/>
	<path fill="#74C1B2" d="M31.56,77.238v-0.594l0.759-0.737c1.826-1.738,2.651-2.662,2.662-3.74c0-0.727-0.352-1.397-1.419-1.397
		c-0.649,0-1.188,0.33-1.519,0.604l-0.308-0.682c0.495-0.418,1.199-0.727,2.024-0.727c1.541,0,2.189,1.057,2.189,2.08
		c0,1.319-0.957,2.387-2.464,3.839l-0.572,0.528v0.022h3.212v0.803H31.56z"/>
	<path fill="#74C1B2" d="M37.28,76.666c0-0.407,0.275-0.693,0.66-0.693c0.385,0,0.649,0.286,0.649,0.693
		c0,0.396-0.253,0.693-0.66,0.693C37.543,77.359,37.28,77.062,37.28,76.666z"/>
	<path fill="#74C1B2" d="M44.232,73.586c0,2.432-0.902,3.773-2.486,3.773c-1.397,0-2.343-1.31-2.365-3.675
		c0-2.398,1.034-3.719,2.486-3.719C43.374,69.966,44.232,71.309,44.232,73.586z M40.349,73.695c0,1.859,0.572,2.916,1.452,2.916
		c0.99,0,1.463-1.155,1.463-2.981c0-1.761-0.451-2.916-1.452-2.916C40.965,70.714,40.349,71.748,40.349,73.695z"/>
</g>
<g enable-background="new    ">
	<g enable-background="new    ">
		<path fill="#808080" d="M307.994,52.935v-0.757l0.967-0.938c2.325-2.213,3.376-3.39,3.391-4.762c0-0.925-0.449-1.779-1.808-1.779
			c-0.826,0-1.513,0.42-1.933,0.771l-0.393-0.869c0.631-0.532,1.527-0.924,2.577-0.924c1.962,0,2.788,1.345,2.788,2.647
			c0,1.681-1.219,3.039-3.139,4.889l-0.728,0.672v0.028h4.09v1.022H307.994z"/>
		<path fill="#808080" d="M315.274,52.206c0-0.519,0.351-0.883,0.841-0.883s0.826,0.364,0.826,0.883
			c0,0.504-0.322,0.883-0.841,0.883C315.61,53.089,315.274,52.71,315.274,52.206z"/>
		<path fill="#808080" d="M318.368,51.52c0.351,0.225,1.163,0.574,2.017,0.574c1.584,0,2.074-1.008,2.06-1.765
			c-0.014-1.274-1.163-1.821-2.353-1.821h-0.688v-0.924h0.688c0.896,0,2.031-0.463,2.031-1.541c0-0.729-0.463-1.373-1.598-1.373
			c-0.729,0-1.429,0.322-1.82,0.603l-0.322-0.896c0.476-0.351,1.4-0.7,2.381-0.7c1.793,0,2.605,1.064,2.605,2.171
			c0,0.938-0.561,1.737-1.682,2.144v0.027c1.121,0.225,2.031,1.064,2.031,2.34c0,1.456-1.135,2.731-3.319,2.731
			c-1.022,0-1.919-0.322-2.367-0.616L318.368,51.52z"/>
		<path fill="#808080" d="M331.167,43.83v0.812l-3.964,8.293h-1.275l3.951-8.055v-0.027h-4.455V43.83H331.167z"/>
		<path fill="#808080" d="M335.113,44.979h-0.027l-1.584,0.854l-0.237-0.938l1.989-1.064h1.051v9.104h-1.191V44.979z"/>
		<path fill="#808080" d="M339.844,51.674c0.364,0.238,1.008,0.49,1.625,0.49c0.896,0,1.316-0.448,1.316-1.009
			c0-0.588-0.35-0.91-1.261-1.246c-1.218-0.435-1.793-1.106-1.793-1.919c0-1.093,0.883-1.989,2.339-1.989
			c0.688,0,1.289,0.196,1.668,0.42l-0.309,0.896c-0.266-0.168-0.756-0.392-1.387-0.392c-0.729,0-1.135,0.42-1.135,0.924
			c0,0.561,0.406,0.812,1.289,1.148c1.176,0.448,1.779,1.037,1.779,2.046c0,1.19-0.926,2.03-2.536,2.03
			c-0.742,0-1.429-0.182-1.905-0.462L339.844,51.674z"/>
	</g>
</g>
<g enable-background="new    ">
	<path fill="#74C1B2" d="M228.362,67.174h-0.036l-2.034,1.098l-0.306-1.206l2.557-1.368h1.35V77.4h-1.53V67.174z"/>
	<path fill="#74C1B2" d="M234.283,76.464c0-0.666,0.45-1.134,1.08-1.134c0.631,0,1.062,0.468,1.062,1.134
		c0,0.648-0.414,1.135-1.08,1.135C234.716,77.599,234.283,77.112,234.283,76.464z"/>
	<path fill="#74C1B2" d="M244.869,67.029h-4.465l-0.451,3.007c0.271-0.036,0.522-0.072,0.955-0.072c0.9,0,1.801,0.198,2.521,0.631
		c0.918,0.521,1.675,1.53,1.675,3.007c0,2.286-1.818,3.997-4.357,3.997c-1.279,0-2.359-0.36-2.917-0.721l0.396-1.206
		c0.486,0.288,1.441,0.648,2.504,0.648c1.494,0,2.771-0.973,2.771-2.539c-0.018-1.513-1.025-2.593-3.366-2.593
		c-0.667,0-1.188,0.072-1.62,0.126l0.756-5.617h5.6V67.029z"/>
	<path fill="#74C1B2" d="M254.104,67.029h-4.466l-0.45,3.007c0.27-0.036,0.521-0.072,0.954-0.072c0.9,0,1.801,0.198,2.521,0.631
		c0.919,0.521,1.675,1.53,1.675,3.007c0,2.286-1.818,3.997-4.357,3.997c-1.278,0-2.358-0.36-2.917-0.721l0.396-1.206
		c0.486,0.288,1.44,0.648,2.503,0.648c1.494,0,2.772-0.973,2.772-2.539c-0.018-1.513-1.026-2.593-3.367-2.593
		c-0.666,0-1.188,0.072-1.62,0.126l0.757-5.617h5.6V67.029z"/>
	<path fill="#74C1B2" d="M263.03,66.813c-0.324-0.019-0.738,0-1.188,0.071c-2.484,0.415-3.799,2.233-4.069,4.16h0.054
		c0.559-0.738,1.531-1.351,2.827-1.351c2.071,0,3.529,1.494,3.529,3.781c0,2.143-1.458,4.123-3.89,4.123
		c-2.502,0-4.141-1.944-4.141-4.987c0-2.305,0.828-4.124,1.98-5.276c0.973-0.954,2.269-1.548,3.745-1.729
		c0.468-0.071,0.864-0.09,1.152-0.09V66.813z M262.58,73.565c0-1.675-0.954-2.683-2.412-2.683c-0.955,0-1.837,0.594-2.27,1.44
		c-0.107,0.18-0.18,0.414-0.18,0.702c0.036,1.926,0.918,3.349,2.574,3.349C261.662,76.374,262.58,75.24,262.58,73.565z"/>
	<path fill="#74C1B2" d="M265.872,75.78c0.468,0.306,1.296,0.63,2.089,0.63c1.152,0,1.692-0.576,1.692-1.297
		c0-0.756-0.45-1.17-1.62-1.602c-1.566-0.559-2.305-1.423-2.305-2.467c0-1.405,1.134-2.558,3.007-2.558
		c0.882,0,1.656,0.253,2.143,0.541l-0.396,1.152c-0.342-0.217-0.972-0.505-1.782-0.505c-0.937,0-1.459,0.54-1.459,1.188
		c0,0.721,0.522,1.045,1.656,1.477c1.514,0.576,2.287,1.332,2.287,2.629c0,1.53-1.188,2.61-3.259,2.61
		c-0.954,0-1.837-0.233-2.448-0.594L265.872,75.78z"/>
</g>
<rect x="53.551" y="38.938" fill="#CCCCCC" width="242.033" height="16.692"/>
<rect x="53.551" y="130.308" fill="#CCCCCC" width="149.864" height="16.692"/>
<rect x="53.551" y="63.092" fill="#74C1B2" width="158.949" height="16.693"/>
<rect x="53.551" y="155.307" fill="#74C1B2" width="165.864" height="16.693"/>
<g enable-background="new    ">
	<path fill="#808080" d="M10.33,141.438l4.115-6.018v-0.033h-3.763v-0.803h5.006v0.583l-4.093,5.996v0.033h4.147V142H10.33V141.438z
		"/>
	<path fill="#808080" d="M20.759,138.523h-2.882v2.674h3.212V142h-4.17v-7.415h4.005v0.803h-3.047v2.344h2.882V138.523z"/>
	<path fill="#808080" d="M22.331,142v-7.415h1.045l2.376,3.752c0.55,0.869,0.979,1.649,1.331,2.409l0.022-0.012
		c-0.088-0.989-0.11-1.892-0.11-3.047v-3.103h0.902V142h-0.968l-2.354-3.763c-0.517-0.825-1.012-1.672-1.386-2.476l-0.033,0.012
		c0.055,0.935,0.077,1.826,0.077,3.059V142H22.331z"/>
	<path fill="#808080" d="M33.661,135.751h-0.022l-1.243,0.671l-0.187-0.736l1.562-0.837h0.825V142h-0.936V135.751z"/>
	<path fill="#808080" d="M37.28,141.428c0-0.407,0.275-0.693,0.66-0.693c0.385,0,0.649,0.286,0.649,0.693
		c0,0.396-0.253,0.693-0.66,0.693C37.543,142.121,37.28,141.824,37.28,141.428z"/>
	<path fill="#808080" d="M40.239,136.675l0.759,1.145c0.198,0.297,0.363,0.572,0.539,0.869h0.033
		c0.176-0.319,0.352-0.594,0.528-0.88l0.748-1.134h1.045l-1.815,2.575l1.871,2.75h-1.101l-0.781-1.199
		c-0.209-0.308-0.385-0.605-0.572-0.924h-0.022c-0.176,0.318-0.363,0.604-0.561,0.924L40.14,142h-1.067l1.893-2.718l-1.805-2.607
		H40.239z"/>
</g>
<g enable-background="new    ">
	<path fill="#74C1B2" d="M10.33,166.302l4.115-6.018v-0.033h-3.763v-0.803h5.006v0.583l-4.093,5.996v0.033h4.147v0.803H10.33
		V166.302z"/>
	<path fill="#74C1B2" d="M20.759,163.387h-2.882v2.674h3.212v0.803h-4.17v-7.415h4.005v0.803h-3.047v2.344h2.882V163.387z"/>
	<path fill="#74C1B2" d="M22.331,166.863v-7.415h1.045l2.376,3.752c0.55,0.869,0.979,1.649,1.331,2.409l0.022-0.012
		c-0.088-0.989-0.11-1.892-0.11-3.047v-3.103h0.902v7.415h-0.968l-2.354-3.763c-0.517-0.825-1.012-1.672-1.386-2.476l-0.033,0.012
		c0.055,0.935,0.077,1.826,0.077,3.059v3.168H22.331z"/>
	<path fill="#74C1B2" d="M31.56,166.863v-0.594l0.759-0.737c1.826-1.738,2.651-2.662,2.662-3.74c0-0.727-0.352-1.397-1.419-1.397
		c-0.649,0-1.188,0.33-1.519,0.604l-0.308-0.682c0.495-0.418,1.199-0.727,2.024-0.727c1.541,0,2.189,1.057,2.189,2.08
		c0,1.319-0.957,2.387-2.464,3.839l-0.572,0.528v0.022h3.212v0.803H31.56z"/>
	<path fill="#74C1B2" d="M37.28,166.291c0-0.407,0.275-0.693,0.66-0.693c0.385,0,0.649,0.286,0.649,0.693
		c0,0.396-0.253,0.693-0.66,0.693C37.543,166.984,37.28,166.688,37.28,166.291z"/>
	<path fill="#74C1B2" d="M44.232,163.211c0,2.432-0.902,3.773-2.486,3.773c-1.397,0-2.343-1.31-2.365-3.675
		c0-2.398,1.034-3.719,2.486-3.719C43.374,159.591,44.232,160.934,44.232,163.211z M40.349,163.32c0,1.859,0.572,2.916,1.452,2.916
		c0.99,0,1.463-1.155,1.463-2.981c0-1.761-0.451-2.916-1.452-2.916C40.965,160.339,40.349,161.373,40.349,163.32z"/>
</g>
<g enable-background="new    ">
	<g enable-background="new    ">
		<path fill="#808080" d="M222.121,133.502c-0.252-0.014-0.574,0-0.924,0.056c-1.934,0.322-2.956,1.737-3.166,3.236h0.041
			c0.436-0.574,1.191-1.051,2.199-1.051c1.611,0,2.746,1.162,2.746,2.941c0,1.667-1.135,3.208-3.025,3.208
			c-1.947,0-3.223-1.513-3.223-3.88c0-1.793,0.645-3.208,1.541-4.104c0.757-0.742,1.766-1.205,2.914-1.345
			c0.364-0.057,0.672-0.07,0.896-0.07V133.502z M221.771,138.755c0-1.303-0.743-2.087-1.877-2.087c-0.743,0-1.43,0.462-1.766,1.12
			c-0.084,0.14-0.141,0.322-0.141,0.546c0.029,1.499,0.715,2.605,2.004,2.605C221.057,140.939,221.771,140.058,221.771,138.755z"/>
		<path fill="#808080" d="M229.541,133.67h-3.475l-0.35,2.339c0.21-0.027,0.406-0.056,0.742-0.056c0.701,0,1.4,0.154,1.961,0.49
			c0.715,0.406,1.303,1.19,1.303,2.339c0,1.779-1.414,3.11-3.39,3.11c-0.995,0-1.835-0.28-2.269-0.561l0.308-0.938
			c0.378,0.224,1.12,0.504,1.947,0.504c1.163,0,2.157-0.756,2.157-1.975c-0.014-1.177-0.799-2.018-2.619-2.018
			c-0.52,0-0.925,0.057-1.262,0.099l0.589-4.37h4.356V133.67z"/>
	</g>
</g>
<g enable-background="new    ">
	<path fill="#74C1B2" d="M243.178,157.297v1.044L238.082,169h-1.639l5.077-10.354v-0.035h-5.726v-1.314H243.178z"/>
	<path fill="#74C1B2" d="M248.252,158.773h-0.036l-2.034,1.098l-0.307-1.206l2.557-1.368h1.351V169h-1.53V158.773z"/>
</g>
</svg>
