<?xml version="1.0" encoding="utf-8"?>
<!-- Generator: Adobe Illustrator 16.0.4, SVG Export Plug-In . SVG Version: 6.00 Build 0)  -->
<!DOCTYPE svg PUBLIC "-//W3C//DTD SVG 1.1//EN" "http://www.w3.org/Graphics/SVG/1.1/DTD/svg11.dtd">
<svg version="1.1" id="レイヤー_1" xmlns="http://www.w3.org/2000/svg" xmlns:xlink="http://www.w3.org/1999/xlink" x="0px"
	 y="0px" width="360px" height="200px" viewBox="0 0 360 200" enable-background="new 0 0 360 200" xml:space="preserve">
<path fill="#74C1B2" d="M242.9,42.7V137c0,7.6-6.2,13.9-13.9,13.9h-47.1c0,4.2,2.3,9.4,4.2,12.8c1,1.8,1.4,3,1.4,3.8
	c0,3-2.5,2.9-5.5,2.9h-44.4c-3,0-5.5,0.1-5.5-2.9c0-0.8,0.4-2.1,1.4-3.8c1.8-3.5,4.2-8.4,4.2-12.8H90.4c-7.6,0-13.9-6.2-13.9-13.9
	V42.7c0-7.6,6.2-13.9,13.9-13.9H229C236.7,28.8,242.9,35.1,242.9,42.7z M231.8,114.8V42.7c0-1.5-1.3-2.8-2.8-2.8H90.4
	c-1.5,0-2.8,1.3-2.8,2.8v72.1c0,1.5,1.3,2.8,2.8,2.8H229C230.5,117.6,231.8,116.3,231.8,114.8z"/>
<path fill="#FFFFFF" d="M272,148.7c0,2.9-2.4,5.3-5.3,5.3h-47.3c-2.9,0-5.3-2.4-5.3-5.3V71.3c0-2.9,2.4-5.3,5.3-5.3h47.3
	c2.9,0,5.3,2.4,5.3,5.3V148.7z"/>
<path fill="#74C1B2" d="M276.5,67.7v90.4c0,6.8-5.5,12.3-12.3,12.3h-43.7c-6.8,0-12.3-5.5-12.3-12.3V67.7c0-6.8,5.5-12.3,12.3-12.3
	h43.7C271,55.4,276.5,61,276.5,67.7z M266.7,148.3V74.5c0-1.3-1.2-2.5-2.5-2.5h-43.7c-1.3,0-2.5,1.2-2.5,2.5v73.8
	c0,1.3,1.2,2.5,2.5,2.5h43.7C265.5,150.7,266.7,149.6,266.7,148.3z M245.8,164c1-1,1.5-2.2,1.5-3.5c0-2.7-2.2-4.9-4.9-4.9
	s-4.9,2.2-4.9,4.9c0,2.7,2.2,4.9,4.9,4.9C243.7,165.5,244.8,165,245.8,164z"/>
<g>
	<path fill="#74C1B2" d="M147.4,74.1l-7.7,12v0.1h7.8v1.3h-9.9v-0.9l7.8-12.1v-0.1h-7.1v-1.3h9.1L147.4,74.1L147.4,74.1z"/>
	<path fill="#74C1B2" d="M161.7,87.5h-7.6V73.1h7.3v1.3h-5.7v4.9h5.4v1.3h-5.4v5.6h6V87.5L161.7,87.5z"/>
	<path fill="#74C1B2" d="M178.6,87.5h-1.6l-4.6-7.6c-1-1.6-1.9-3.2-2.6-4.8l-0.1,0c0.1,1.8,0.2,3.5,0.2,6v6.4h-1.5V73.1h1.6l4.7,7.6
		c1,1.7,1.9,3.2,2.5,4.7l0,0c-0.1-2-0.2-3.7-0.2-6v-6.3h1.5L178.6,87.5L178.6,87.5z"/>
</g>
<g>
	<path fill="#74C1B2" d="M234.6,105.1l-5.4,8.4v0.1h5.5v0.9h-6.9v-0.7l5.4-8.5v0h-5v-0.9h6.4L234.6,105.1L234.6,105.1z"/>
	<path fill="#74C1B2" d="M244.7,114.5h-5.3v-10.1h5.1v0.9h-4v3.4h3.8v0.9h-3.8v3.9h4.2L244.7,114.5L244.7,114.5z"/>
	<path fill="#74C1B2" d="M256.5,114.5h-1.1l-3.2-5.3c-0.7-1.1-1.3-2.3-1.8-3.4l-0.1,0c0.1,1.3,0.1,2.5,0.1,4.2v4.5h-1v-10.1h1.2
		l3.3,5.3c0.7,1.2,1.3,2.2,1.8,3.3l0,0c-0.1-1.4-0.1-2.6-0.1-4.2v-4.4h1L256.5,114.5L256.5,114.5L256.5,114.5z"/>
</g>
</svg>
