<?xml version="1.0" encoding="utf-8"?>
<!-- Generator: Adobe Illustrator 16.0.4, SVG Export Plug-In . SVG Version: 6.00 Build 0)  -->
<!DOCTYPE svg PUBLIC "-//W3C//DTD SVG 1.1//EN" "http://www.w3.org/Graphics/SVG/1.1/DTD/svg11.dtd">
<svg version="1.1" id="レイヤー_1" xmlns="http://www.w3.org/2000/svg" xmlns:xlink="http://www.w3.org/1999/xlink" x="0px"
	 y="0px" width="360px" height="200px" viewBox="0 0 360 200" enable-background="new 0 0 360 200" xml:space="preserve">
<g enable-background="new    ">
	<path fill="#444444" d="M11.2,26c0.7,0.4,1.7,0.8,2.8,0.8c1.6,0,2.5-0.8,2.5-2.1c0-1.1-0.6-1.8-2.3-2.4c-2-0.7-3.2-1.7-3.2-3.4
		c0-1.9,1.6-3.3,3.9-3.3c1.2,0,2.1,0.3,2.7,0.6l-0.4,1.3c-0.4-0.2-1.2-0.6-2.3-0.6c-1.7,0-2.3,1-2.3,1.8c0,1.1,0.7,1.7,2.4,2.3
		c2.1,0.8,3.1,1.8,3.1,3.6c0,1.9-1.4,3.5-4.2,3.5c-1.2,0-2.4-0.3-3.1-0.8L11.2,26z"/>
	<path fill="#444444" d="M22,16.7v2.5h2.3v1.2H22v4.7c0,1.1,0.3,1.7,1.2,1.7c0.4,0,0.7-0.1,0.9-0.1l0.1,1.2
		c-0.3,0.1-0.8,0.2-1.4,0.2c-0.7,0-1.3-0.2-1.7-0.7c-0.4-0.5-0.6-1.2-0.6-2.3v-4.8h-1.4v-1.2h1.4v-2.1L22,16.7z"/>
	<path fill="#444444" d="M30.9,27.9l-0.1-1.1h-0.1c-0.5,0.7-1.4,1.3-2.7,1.3c-1.8,0-2.7-1.2-2.7-2.5c0-2.1,1.9-3.3,5.2-3.2v-0.2
		c0-0.7-0.2-2-2-2c-0.8,0-1.7,0.3-2.3,0.6l-0.4-1c0.7-0.5,1.8-0.8,2.9-0.8c2.7,0,3.3,1.8,3.3,3.6v3.3c0,0.8,0,1.5,0.1,2.1L30.9,27.9
		L30.9,27.9z M30.7,23.5c-1.7,0-3.7,0.3-3.7,2c0,1,0.7,1.5,1.5,1.5c1.1,0,1.9-0.7,2.1-1.5c0.1-0.2,0.1-0.3,0.1-0.5V23.5z"/>
	<path fill="#444444" d="M34.8,21.9c0-1,0-1.9-0.1-2.7h1.4l0.1,1.7h0.1c0.4-1.2,1.4-1.9,2.4-1.9c0.2,0,0.3,0,0.5,0.1v1.5
		c-0.2,0-0.3-0.1-0.5-0.1c-1.1,0-1.9,0.8-2.1,2c0,0.2-0.1,0.5-0.1,0.7v4.6h-1.6L34.8,21.9L34.8,21.9z"/>
	<path fill="#444444" d="M43,16.7v2.5h2.3v1.2H43v4.7c0,1.1,0.3,1.7,1.2,1.7c0.4,0,0.7-0.1,0.9-0.1l0.1,1.2
		c-0.3,0.1-0.8,0.2-1.4,0.2c-0.7,0-1.3-0.2-1.7-0.7c-0.5-0.5-0.6-1.2-0.6-2.3v-4.8h-1.3v-1.2h1.3v-2.1L43,16.7z"/>
	<path fill="#444444" d="M50.9,16c0.8-0.2,1.9-0.3,3-0.3c1.7,0,2.8,0.3,3.5,1c0.6,0.5,1,1.4,1,2.3c0,1.6-1,2.7-2.3,3.1v0.1
		c0.9,0.3,1.5,1.2,1.8,2.4c0.4,1.7,0.7,2.9,0.9,3.3h-1.6c-0.2-0.3-0.5-1.4-0.8-2.9c-0.4-1.7-1-2.3-2.4-2.4h-1.5v5.3h-1.6V16z
		 M52.5,21.5h1.6c1.7,0,2.7-0.9,2.7-2.3c0-1.6-1.1-2.2-2.8-2.3c-0.8,0-1.3,0.1-1.5,0.1V21.5z"/>
	<path fill="#444444" d="M61.5,23.9c0,2.1,1.4,3,3,3c1.1,0,1.8-0.2,2.4-0.5l0.3,1.1c-0.6,0.3-1.5,0.5-2.9,0.5
		c-2.7,0-4.3-1.8-4.3-4.4c0-2.6,1.5-4.7,4.1-4.7c2.8,0,3.6,2.5,3.6,4.1c0,0.3,0,0.6-0.1,0.7L61.5,23.9L61.5,23.9z M66.1,22.7
		c0-1-0.4-2.6-2.2-2.6c-1.6,0-2.3,1.5-2.4,2.6H66.1z"/>
	<path fill="#444444" d="M69.6,21.6c0-0.9,0-1.6-0.1-2.4H71l0.1,1.4h0c0.4-0.8,1.4-1.6,2.9-1.6c1.2,0,3.1,0.7,3.1,3.7v5.2h-1.6v-5
		c0-1.4-0.5-2.6-2-2.6c-1,0-1.9,0.7-2.1,1.6c-0.1,0.2-0.1,0.5-0.1,0.7v5.2h-1.6L69.6,21.6L69.6,21.6z"/>
	<path fill="#444444" d="M87.1,15.1v10.5c0,0.8,0,1.7,0.1,2.3h-1.4l-0.1-1.5h0c-0.5,1-1.5,1.7-3,1.7c-2.1,0-3.7-1.8-3.7-4.4
		c0-2.9,1.8-4.7,3.9-4.7c1.3,0,2.2,0.6,2.6,1.3h0v-5.2H87.1z M85.6,22.8c0-0.2,0-0.5-0.1-0.7c-0.2-1-1.1-1.8-2.3-1.8
		c-1.6,0-2.6,1.4-2.6,3.4c0,1.8,0.9,3.2,2.6,3.2c1.1,0,2-0.7,2.3-1.9c0.1-0.2,0.1-0.4,0.1-0.7V22.8z"/>
	<path fill="#444444" d="M90.7,23.9c0,2.1,1.4,3,3,3c1.1,0,1.8-0.2,2.4-0.5l0.3,1.1c-0.6,0.3-1.5,0.5-2.9,0.5
		c-2.7,0-4.3-1.8-4.3-4.4c0-2.6,1.5-4.7,4.1-4.7c2.8,0,3.6,2.5,3.6,4.1c0,0.3,0,0.6-0.1,0.7L90.7,23.9L90.7,23.9z M95.3,22.7
		c0-1-0.4-2.6-2.2-2.6c-1.6,0-2.3,1.5-2.4,2.6H95.3z"/>
	<path fill="#444444" d="M98.8,21.9c0-1,0-1.9-0.1-2.7h1.4l0.1,1.7h0.1c0.4-1.2,1.4-1.9,2.4-1.9c0.2,0,0.3,0,0.5,0.1v1.5
		c-0.2,0-0.3-0.1-0.5-0.1c-1.1,0-1.9,0.8-2.1,2c0,0.2-0.1,0.5-0.1,0.7v4.6h-1.6L98.8,21.9L98.8,21.9z"/>
</g>
<g enable-background="new    ">
	<path fill="#444444" d="M20.6,114c-0.7,0.3-2.1,0.7-3.7,0.7c-1.8,0-3.3-0.5-4.5-1.6c-1-1-1.7-2.6-1.7-4.5c0-3.6,2.5-6.3,6.6-6.3
		c1.4,0,2.5,0.3,3,0.6l-0.4,1.3c-0.6-0.3-1.5-0.5-2.7-0.5c-3,0-4.9,1.8-4.9,4.9c0,3.1,1.9,4.9,4.7,4.9c1,0,1.7-0.1,2.1-0.3v-3.6
		h-2.5v-1.3h4L20.6,114L20.6,114z"/>
	<path fill="#444444" d="M30.9,110.2c0,3.2-2.2,4.6-4.3,4.6c-2.4,0-4.2-1.7-4.2-4.5c0-2.9,1.9-4.6,4.3-4.6
		C29.2,105.7,30.9,107.5,30.9,110.2z M24,110.2c0,1.9,1.1,3.3,2.6,3.3c1.5,0,2.6-1.4,2.6-3.4c0-1.5-0.7-3.3-2.6-3.3
		C24.8,106.9,24,108.6,24,110.2z"/>
	<path fill="#444444" d="M40.8,110.2c0,3.2-2.2,4.6-4.3,4.6c-2.4,0-4.2-1.7-4.2-4.5c0-2.9,1.9-4.6,4.3-4.6
		C39.1,105.7,40.8,107.5,40.8,110.2z M33.9,110.2c0,1.9,1.1,3.3,2.6,3.3c1.5,0,2.6-1.4,2.6-3.4c0-1.5-0.7-3.3-2.6-3.3
		C34.7,106.9,33.9,108.6,33.9,110.2z"/>
	<path fill="#444444" d="M50.3,105.9c0,0.6-0.1,1.3-0.1,2.4v5.1c0,2-0.4,3.2-1.2,4c-0.8,0.8-2.1,1-3.2,1c-1,0-2.2-0.3-2.9-0.7
		l0.4-1.2c0.6,0.4,1.5,0.7,2.6,0.7c1.6,0,2.8-0.8,2.8-3v-1h0c-0.5,0.8-1.4,1.5-2.8,1.5c-2.2,0-3.7-1.8-3.7-4.2c0-3,1.9-4.6,3.9-4.6
		c1.5,0,2.3,0.8,2.7,1.5h0l0.1-1.3L50.3,105.9L50.3,105.9z M48.7,109.3c0-0.3,0-0.5-0.1-0.7c-0.3-0.9-1.1-1.7-2.2-1.7
		c-1.5,0-2.6,1.3-2.6,3.3c0,1.7,0.9,3.1,2.6,3.1c1,0,1.9-0.6,2.2-1.6c0.1-0.3,0.1-0.6,0.1-0.8V109.3z"/>
	<path fill="#444444" d="M52.9,101.8h1.6v12.8h-1.6V101.8z"/>
	<path fill="#444444" d="M58,110.5c0,2.1,1.4,3,3,3c1.1,0,1.8-0.2,2.4-0.5l0.3,1.1c-0.6,0.3-1.5,0.5-2.9,0.5c-2.7,0-4.3-1.8-4.3-4.4
		s1.5-4.7,4.1-4.7c2.8,0,3.6,2.5,3.6,4.1c0,0.3,0,0.6-0.1,0.7L58,110.5L58,110.5z M62.6,109.4c0-1-0.4-2.6-2.2-2.6
		c-1.6,0-2.3,1.5-2.4,2.6H62.6z"/>
	<path fill="#444444" d="M70,102.6c0.8-0.1,1.7-0.2,3-0.2c1.5,0,2.7,0.4,3.4,1c0.7,0.6,1.1,1.5,1.1,2.5c0,1.1-0.3,2-0.9,2.6
		c-0.8,0.9-2.2,1.3-3.7,1.3c-0.5,0-0.9,0-1.3-0.1v4.9H70L70,102.6L70,102.6z M71.6,108.4c0.3,0.1,0.8,0.1,1.3,0.1c1.9,0,3-0.9,3-2.6
		c0-1.6-1.1-2.4-2.9-2.4c-0.7,0-1.2,0.1-1.5,0.1V108.4z"/>
	<path fill="#444444" d="M83.9,114.6l-0.1-1.1h-0.1c-0.5,0.7-1.4,1.3-2.7,1.3c-1.8,0-2.7-1.2-2.7-2.5c0-2.1,1.9-3.3,5.2-3.2v-0.2
		c0-0.7-0.2-2-2-2c-0.8,0-1.7,0.3-2.3,0.6l-0.4-1c0.7-0.5,1.8-0.8,2.9-0.8c2.7,0,3.3,1.8,3.3,3.6v3.3c0,0.8,0,1.5,0.1,2.1
		L83.9,114.6L83.9,114.6z M83.6,110.1c-1.7,0-3.7,0.3-3.7,2c0,1,0.7,1.5,1.5,1.5c1.1,0,1.9-0.7,2.1-1.5c0.1-0.2,0.1-0.3,0.1-0.5
		V110.1z"/>
	<path fill="#444444" d="M95.2,105.9c0,0.6-0.1,1.3-0.1,2.4v5.1c0,2-0.4,3.2-1.2,4c-0.8,0.8-2.1,1-3.2,1c-1,0-2.2-0.3-2.9-0.7
		l0.4-1.2c0.6,0.4,1.5,0.7,2.6,0.7c1.6,0,2.8-0.8,2.8-3v-1h0c-0.5,0.8-1.4,1.5-2.8,1.5c-2.2,0-3.7-1.8-3.7-4.2c0-3,1.9-4.6,3.9-4.6
		c1.5,0,2.3,0.8,2.7,1.5h0l0.1-1.3L95.2,105.9L95.2,105.9z M93.6,109.3c0-0.3,0-0.5-0.1-0.7c-0.3-0.9-1.1-1.7-2.2-1.7
		c-1.5,0-2.6,1.3-2.6,3.3c0,1.7,0.9,3.1,2.6,3.1c1,0,1.9-0.6,2.2-1.6c0.1-0.3,0.1-0.6,0.1-0.8V109.3z"/>
	<path fill="#444444" d="M98.7,110.5c0,2.1,1.4,3,3,3c1.1,0,1.8-0.2,2.4-0.5l0.3,1.1c-0.6,0.3-1.5,0.5-2.9,0.5
		c-2.7,0-4.3-1.8-4.3-4.4s1.5-4.7,4.1-4.7c2.8,0,3.6,2.5,3.6,4.1c0,0.3,0,0.6-0.1,0.7L98.7,110.5L98.7,110.5L98.7,110.5z
		 M103.3,109.4c0-1-0.4-2.6-2.2-2.6c-1.6,0-2.3,1.5-2.4,2.6H103.3z"/>
	<path fill="#444444" d="M106.6,112.7c0.7,0.4,1.7,0.8,2.8,0.8c1.6,0,2.5-0.8,2.5-2.1c0-1.1-0.6-1.8-2.3-2.4c-2-0.7-3.2-1.7-3.2-3.4
		c0-1.9,1.6-3.3,3.9-3.3c1.2,0,2.1,0.3,2.7,0.6l-0.4,1.3c-0.4-0.2-1.2-0.6-2.3-0.6c-1.7,0-2.3,1-2.3,1.8c0,1.1,0.7,1.7,2.4,2.3
		c2.1,0.8,3.1,1.8,3.1,3.6c0,1.9-1.4,3.5-4.2,3.5c-1.2,0-2.4-0.3-3.1-0.8L106.6,112.7z"/>
	<path fill="#444444" d="M115.7,108.7c0-1.1,0-2-0.1-2.8h1.4l0.1,1.5h0c0.6-1.1,1.7-1.7,3.1-1.7c2.1,0,3.7,1.8,3.7,4.4
		c0,3.1-1.9,4.7-4,4.7c-1.2,0-2.2-0.5-2.7-1.4h0v4.7h-1.6V108.7z M117.2,111c0,0.2,0,0.5,0.1,0.6c0.3,1.1,1.2,1.9,2.4,1.9
		c1.7,0,2.6-1.4,2.6-3.4c0-1.7-0.9-3.2-2.6-3.2c-1.1,0-2.1,0.8-2.4,2c-0.1,0.2-0.1,0.4-0.1,0.6V111z"/>
	<path fill="#444444" d="M126.8,110.5c0,2.1,1.4,3,3,3c1.1,0,1.8-0.2,2.4-0.5l0.3,1.1c-0.6,0.3-1.5,0.5-2.9,0.5
		c-2.7,0-4.3-1.8-4.3-4.4s1.5-4.7,4.1-4.7c2.8,0,3.6,2.5,3.6,4.1c0,0.3,0,0.6-0.1,0.7L126.8,110.5L126.8,110.5z M131.4,109.4
		c0-1-0.4-2.6-2.2-2.6c-1.6,0-2.3,1.5-2.4,2.6H131.4z"/>
	<path fill="#444444" d="M135.8,110.5c0,2.1,1.4,3,3,3c1.1,0,1.8-0.2,2.4-0.5l0.3,1.1c-0.6,0.3-1.5,0.5-2.9,0.5
		c-2.7,0-4.3-1.8-4.3-4.4s1.5-4.7,4.1-4.7c2.8,0,3.6,2.5,3.6,4.1c0,0.3,0,0.6-0.1,0.7L135.8,110.5L135.8,110.5L135.8,110.5z
		 M140.5,109.4c0-1-0.4-2.6-2.2-2.6c-1.6,0-2.3,1.5-2.4,2.6H140.5z"/>
	<path fill="#444444" d="M151.5,101.8v10.5c0,0.8,0,1.7,0.1,2.3h-1.4l-0.1-1.5h0c-0.5,1-1.5,1.7-3,1.7c-2.1,0-3.7-1.8-3.7-4.4
		c0-2.9,1.8-4.7,3.9-4.7c1.3,0,2.2,0.6,2.6,1.3h0v-5.2L151.5,101.8L151.5,101.8z M149.9,109.4c0-0.2,0-0.5-0.1-0.7
		c-0.2-1-1.1-1.8-2.3-1.8c-1.6,0-2.6,1.4-2.6,3.4c0,1.8,0.9,3.2,2.6,3.2c1.1,0,2-0.7,2.3-1.9c0.1-0.2,0.1-0.4,0.1-0.7V109.4z"/>
	<path fill="#444444" d="M159.5,102.5v12.1H158v-12.1H159.5z"/>
	<path fill="#444444" d="M162.4,108.2c0-0.9,0-1.6-0.1-2.4h1.4l0.1,1.4h0c0.4-0.8,1.4-1.6,2.9-1.6c1.2,0,3.1,0.7,3.1,3.7v5.2h-1.6
		v-5c0-1.4-0.5-2.6-2-2.6c-1,0-1.9,0.7-2.1,1.6c-0.1,0.2-0.1,0.5-0.1,0.7v5.2h-1.6V108.2L162.4,108.2z"/>
	<path fill="#444444" d="M172.2,113c0.5,0.3,1.3,0.6,2.1,0.6c1.2,0,1.7-0.6,1.7-1.3c0-0.8-0.5-1.2-1.6-1.6c-1.6-0.6-2.3-1.4-2.3-2.5
		c0-1.4,1.1-2.6,3-2.6c0.9,0,1.7,0.3,2.1,0.5l-0.4,1.2c-0.3-0.2-1-0.5-1.8-0.5c-0.9,0-1.5,0.5-1.5,1.2c0,0.7,0.5,1,1.7,1.5
		c1.5,0.6,2.3,1.3,2.3,2.6c0,1.5-1.2,2.6-3.3,2.6c-1,0-1.8-0.2-2.4-0.6L172.2,113z"/>
	<path fill="#444444" d="M181.3,103.4c0,0.5-0.4,1-1,1c-0.6,0-1-0.4-1-1c0-0.6,0.4-1,1-1C180.9,102.4,181.3,102.9,181.3,103.4z
		 M179.5,114.6v-8.7h1.6v8.7H179.5z"/>
	<path fill="#444444" d="M191.2,105.9c0,0.6-0.1,1.3-0.1,2.4v5.1c0,2-0.4,3.2-1.2,4c-0.8,0.8-2.1,1-3.2,1c-1,0-2.2-0.3-2.9-0.7
		l0.4-1.2c0.6,0.4,1.5,0.7,2.6,0.7c1.6,0,2.8-0.8,2.8-3v-1h0c-0.5,0.8-1.4,1.5-2.8,1.5c-2.2,0-3.7-1.8-3.7-4.2c0-3,1.9-4.6,3.9-4.6
		c1.5,0,2.3,0.8,2.7,1.5h0l0.1-1.3L191.2,105.9L191.2,105.9z M189.6,109.3c0-0.3,0-0.5-0.1-0.7c-0.3-0.9-1.1-1.7-2.2-1.7
		c-1.5,0-2.6,1.3-2.6,3.3c0,1.7,0.9,3.1,2.6,3.1c1,0,1.9-0.6,2.2-1.6c0.1-0.3,0.1-0.6,0.1-0.8L189.6,109.3L189.6,109.3L189.6,109.3z
		"/>
	<path fill="#444444" d="M193.8,101.8h1.6v5.4h0c0.3-0.5,0.6-0.8,1.1-1.1c0.5-0.3,1-0.5,1.6-0.5c1.2,0,3,0.7,3,3.7v5.2h-1.6v-5
		c0-1.4-0.5-2.6-2-2.6c-1,0-1.8,0.7-2.1,1.6c-0.1,0.2-0.1,0.5-0.1,0.8v5.3h-1.6V101.8L193.8,101.8z"/>
	<path fill="#444444" d="M205.6,103.4v2.5h2.3v1.2h-2.3v4.7c0,1.1,0.3,1.7,1.2,1.7c0.4,0,0.7-0.1,0.9-0.1l0.1,1.2
		c-0.3,0.1-0.8,0.2-1.4,0.2c-0.7,0-1.3-0.2-1.7-0.7c-0.5-0.5-0.6-1.2-0.6-2.3v-4.8h-1.4v-1.2h1.4v-2.1L205.6,103.4z"/>
	<path fill="#444444" d="M209.5,113c0.5,0.3,1.3,0.6,2.1,0.6c1.2,0,1.7-0.6,1.7-1.3c0-0.8-0.5-1.2-1.6-1.6c-1.6-0.6-2.3-1.4-2.3-2.5
		c0-1.4,1.1-2.6,3-2.6c0.9,0,1.7,0.3,2.1,0.5l-0.4,1.2c-0.3-0.2-1-0.5-1.8-0.5c-0.9,0-1.5,0.5-1.5,1.2c0,0.7,0.5,1,1.7,1.5
		c1.5,0.6,2.3,1.3,2.3,2.6c0,1.5-1.2,2.6-3.3,2.6c-1,0-1.8-0.2-2.4-0.6L209.5,113z"/>
	<path fill="#444444" d="M220.5,112.7c0.7,0.4,1.7,0.8,2.8,0.8c1.6,0,2.5-0.8,2.5-2.1c0-1.1-0.6-1.8-2.3-2.4c-2-0.7-3.2-1.7-3.2-3.4
		c0-1.9,1.6-3.3,3.9-3.3c1.2,0,2.1,0.3,2.7,0.6l-0.4,1.3c-0.4-0.2-1.2-0.6-2.3-0.6c-1.7,0-2.3,1-2.3,1.8c0,1.1,0.7,1.7,2.4,2.3
		c2.1,0.8,3.1,1.8,3.1,3.6c0,1.9-1.4,3.5-4.2,3.5c-1.2,0-2.4-0.3-3.1-0.8L220.5,112.7z"/>
	<path fill="#444444" d="M235.8,114.3c-0.4,0.2-1.3,0.5-2.5,0.5c-2.6,0-4.3-1.8-4.3-4.4c0-2.7,1.8-4.6,4.7-4.6
		c0.9,0,1.8,0.2,2.2,0.5l-0.4,1.2c-0.4-0.2-1-0.4-1.8-0.4c-2,0-3.1,1.5-3.1,3.3c0,2,1.3,3.3,3,3.3c0.9,0,1.5-0.2,1.9-0.4
		L235.8,114.3z"/>
	<path fill="#444444" d="M245.4,110.2c0,3.2-2.2,4.6-4.3,4.6c-2.4,0-4.2-1.7-4.2-4.5c0-2.9,1.9-4.6,4.3-4.6
		C243.7,105.7,245.4,107.5,245.4,110.2z M238.5,110.2c0,1.9,1.1,3.3,2.6,3.3c1.5,0,2.6-1.4,2.6-3.4c0-1.5-0.7-3.3-2.6-3.3
		S238.5,108.6,238.5,110.2z"/>
	<path fill="#444444" d="M247.4,108.6c0-1,0-1.9-0.1-2.7h1.4l0.1,1.7h0.1c0.4-1.2,1.4-1.9,2.4-1.9c0.2,0,0.3,0,0.4,0.1v1.5
		c-0.2,0-0.3-0.1-0.5-0.1c-1.1,0-1.9,0.8-2.1,2c0,0.2-0.1,0.5-0.1,0.7v4.6h-1.6L247.4,108.6L247.4,108.6z"/>
	<path fill="#444444" d="M254,110.5c0,2.1,1.4,3,3,3c1.1,0,1.8-0.2,2.4-0.5l0.3,1.1c-0.6,0.3-1.5,0.5-2.9,0.5
		c-2.7,0-4.3-1.8-4.3-4.4s1.5-4.7,4.1-4.7c2.8,0,3.6,2.5,3.6,4.1c0,0.3,0,0.6-0.1,0.7L254,110.5L254,110.5L254,110.5z M258.7,109.4
		c0-1-0.4-2.6-2.2-2.6c-1.6,0-2.3,1.5-2.4,2.6H258.7z"/>
	<path fill="#444444" d="M269.4,102.1c-1.3,1.8-2.3,4.1-2.3,7.4c0,3.2,1,5.5,2.3,7.3h-1.2c-1.1-1.5-2.4-3.8-2.4-7.3
		c0-3.5,1.2-5.9,2.4-7.4H269.4z"/>
	<path fill="#444444" d="M281.4,109.3c-0.1-1.7-0.2-3.7-0.2-5.2h-0.1c-0.4,1.4-0.9,2.9-1.5,4.6l-2.1,5.9h-1.2l-2-5.8
		c-0.6-1.7-1.1-3.3-1.4-4.7h0c0,1.5-0.1,3.5-0.2,5.4l-0.3,5.2h-1.5l0.8-12.1h2l2.1,5.9c0.5,1.5,0.9,2.8,1.2,4.1h0.1
		c0.3-1.2,0.7-2.6,1.3-4.1l2.2-5.9h2l0.8,12.1h-1.5L281.4,109.3z"/>
	<path fill="#444444" d="M293.6,110.2c0,3.2-2.2,4.6-4.3,4.6c-2.4,0-4.2-1.7-4.2-4.5c0-2.9,1.9-4.6,4.3-4.6
		C291.9,105.7,293.6,107.5,293.6,110.2z M286.6,110.2c0,1.9,1.1,3.3,2.6,3.3c1.5,0,2.6-1.4,2.6-3.4c0-1.5-0.7-3.3-2.6-3.3
		C287.4,106.9,286.6,108.6,286.6,110.2z"/>
	<path fill="#444444" d="M295.5,114.6c0-0.6,0.1-1.5,0.1-2.3v-10.5h1.6v5.5h0c0.6-1,1.6-1.6,3-1.6c2.2,0,3.7,1.8,3.7,4.4
		c0,3.1-2,4.7-3.9,4.7c-1.3,0-2.3-0.5-2.9-1.6h-0.1l-0.1,1.4L295.5,114.6L295.5,114.6z M297.1,111.1c0,0.2,0,0.4,0.1,0.6
		c0.3,1.1,1.2,1.9,2.4,1.9c1.7,0,2.6-1.4,2.6-3.4c0-1.7-0.9-3.2-2.6-3.2c-1.1,0-2.1,0.7-2.4,1.9c0,0.2-0.1,0.4-0.1,0.6L297.1,111.1
		L297.1,111.1z"/>
	<path fill="#444444" d="M307.6,103.4c0,0.5-0.4,1-1,1c-0.6,0-1-0.4-1-1c0-0.6,0.4-1,1-1C307.2,102.4,307.6,102.9,307.6,103.4z
		 M305.8,114.6v-8.7h1.6v8.7H305.8z"/>
	<path fill="#444444" d="M310,101.8h1.6v12.8H310V101.8z"/>
	<path fill="#444444" d="M315.1,110.5c0,2.1,1.4,3,3,3c1.1,0,1.8-0.2,2.4-0.5l0.3,1.1c-0.6,0.3-1.5,0.5-2.9,0.5
		c-2.7,0-4.3-1.8-4.3-4.4s1.5-4.7,4.1-4.7c2.8,0,3.6,2.5,3.6,4.1c0,0.3,0,0.6-0.1,0.7L315.1,110.5L315.1,110.5L315.1,110.5z
		 M319.8,109.4c0-1-0.4-2.6-2.2-2.6c-1.6,0-2.3,1.5-2.4,2.6H319.8z"/>
	<path fill="#444444" d="M322.3,116.8c1.3-1.8,2.3-4.1,2.3-7.4c0-3.2-1-5.5-2.3-7.3h1.2c1.2,1.5,2.4,3.8,2.4,7.3
		c0,3.5-1.2,5.8-2.4,7.3H322.3z"/>
</g>
<g enable-background="new    ">
	<path fill="#808080" d="M10.3,50.7l4.1-6v0h-3.8v-0.8h5v0.6l-4.1,6v0h4.1v0.8h-5.4V50.7z"/>
	<path fill="#808080" d="M20.8,47.8h-2.9v2.7h3.2v0.8h-4.2v-7.4h4v0.8h-3V47h2.9V47.8z"/>
	<path fill="#808080" d="M22.3,51.2v-7.4h1l2.4,3.8c0.5,0.9,1,1.6,1.3,2.4l0,0c-0.1-1-0.1-1.9-0.1-3v-3.1h0.9v7.4h-1l-2.4-3.8
		c-0.5-0.8-1-1.7-1.4-2.5l0,0c0.1,0.9,0.1,1.8,0.1,3.1v3.2L22.3,51.2L22.3,51.2z"/>
	<path fill="#808080" d="M33.7,45L33.7,45l-1.3,0.7l-0.2-0.7l1.6-0.8h0.8v7.2h-0.9L33.7,45L33.7,45z"/>
	<path fill="#808080" d="M37.3,50.7c0-0.4,0.3-0.7,0.7-0.7c0.4,0,0.6,0.3,0.6,0.7c0,0.4-0.3,0.7-0.7,0.7
		C37.5,51.4,37.3,51.1,37.3,50.7z"/>
	<path fill="#808080" d="M40.2,45.9l0.8,1.1c0.2,0.3,0.4,0.6,0.5,0.9h0c0.2-0.3,0.4-0.6,0.5-0.9l0.7-1.1h1l-1.8,2.6l1.9,2.8h-1.1
		L42.1,50c-0.2-0.3-0.4-0.6-0.6-0.9h0c-0.2,0.3-0.4,0.6-0.6,0.9l-0.8,1.2h-1.1l1.9-2.7l-1.8-2.6H40.2z"/>
</g>
<g enable-background="new    ">
	<path fill="#74C1B2" d="M10.3,76.7l4.1-6v0h-3.8v-0.8h5v0.6l-4.1,6v0h4.1v0.8h-5.4V76.7z"/>
	<path fill="#74C1B2" d="M20.8,73.8h-2.9v2.7h3.2v0.8h-4.2v-7.4h4v0.8h-3V73h2.9V73.8z"/>
	<path fill="#74C1B2" d="M22.3,77.2v-7.4h1l2.4,3.8c0.5,0.9,1,1.6,1.3,2.4l0,0c-0.1-1-0.1-1.9-0.1-3v-3.1h0.9v7.4h-1l-2.4-3.8
		c-0.5-0.8-1-1.7-1.4-2.5l0,0c0.1,0.9,0.1,1.8,0.1,3.1v3.2L22.3,77.2L22.3,77.2z"/>
	<path fill="#74C1B2" d="M31.6,77.2v-0.6l0.8-0.7c1.8-1.7,2.7-2.7,2.7-3.7c0-0.7-0.4-1.4-1.4-1.4c-0.6,0-1.2,0.3-1.5,0.6l-0.3-0.7
		c0.5-0.4,1.2-0.7,2-0.7c1.5,0,2.2,1.1,2.2,2.1c0,1.3-1,2.4-2.5,3.8l-0.6,0.5v0h3.2v0.8L31.6,77.2L31.6,77.2z"/>
	<path fill="#74C1B2" d="M37.3,76.7c0-0.4,0.3-0.7,0.7-0.7c0.4,0,0.6,0.3,0.6,0.7c0,0.4-0.3,0.7-0.7,0.7
		C37.5,77.4,37.3,77.1,37.3,76.7z"/>
	<path fill="#74C1B2" d="M44.2,73.6c0,2.4-0.9,3.8-2.5,3.8c-1.4,0-2.3-1.3-2.4-3.7c0-2.4,1-3.7,2.5-3.7C43.4,70,44.2,71.3,44.2,73.6
		z M40.3,73.7c0,1.9,0.6,2.9,1.5,2.9c1,0,1.5-1.2,1.5-3c0-1.8-0.5-2.9-1.5-2.9C41,70.7,40.3,71.7,40.3,73.7z"/>
</g>
<g enable-background="new    ">
	<g enable-background="new    ">
		<path fill="#808080" d="M308,52.9v-0.8l1-0.9c2.3-2.2,3.4-3.4,3.4-4.8c0-0.9-0.4-1.8-1.8-1.8c-0.8,0-1.5,0.4-1.9,0.8l-0.4-0.9
			c0.6-0.5,1.5-0.9,2.6-0.9c2,0,2.8,1.3,2.8,2.6c0,1.7-1.2,3-3.1,4.9l-0.7,0.7v0h4.1v1H308z"/>
		<path fill="#808080" d="M315.3,52.2c0-0.5,0.4-0.9,0.8-0.9s0.8,0.4,0.8,0.9c0,0.5-0.3,0.9-0.8,0.9
			C315.6,53.1,315.3,52.7,315.3,52.2z"/>
		<path fill="#808080" d="M318.4,51.5c0.4,0.2,1.2,0.6,2,0.6c1.6,0,2.1-1,2.1-1.8c0-1.3-1.2-1.8-2.4-1.8h-0.7v-0.9h0.7
			c0.9,0,2-0.5,2-1.5c0-0.7-0.5-1.4-1.6-1.4c-0.7,0-1.4,0.3-1.8,0.6l-0.3-0.9c0.5-0.4,1.4-0.7,2.4-0.7c1.8,0,2.6,1.1,2.6,2.2
			c0,0.9-0.6,1.7-1.7,2.1v0c1.1,0.2,2,1.1,2,2.3c0,1.5-1.1,2.7-3.3,2.7c-1,0-1.9-0.3-2.4-0.6L318.4,51.5z"/>
		<path fill="#808080" d="M331.2,43.8v0.8l-4,8.3h-1.3l4-8.1v0h-4.5v-1H331.2z"/>
		<path fill="#808080" d="M335.1,45L335.1,45l-1.6,0.9l-0.2-0.9l2-1.1h1.1v9.1h-1.2L335.1,45L335.1,45z"/>
		<path fill="#808080" d="M339.8,51.7c0.4,0.2,1,0.5,1.6,0.5c0.9,0,1.3-0.4,1.3-1c0-0.6-0.4-0.9-1.3-1.2c-1.2-0.4-1.8-1.1-1.8-1.9
			c0-1.1,0.9-2,2.3-2c0.7,0,1.3,0.2,1.7,0.4l-0.3,0.9c-0.3-0.2-0.8-0.4-1.4-0.4c-0.7,0-1.1,0.4-1.1,0.9c0,0.6,0.4,0.8,1.3,1.1
			c1.2,0.4,1.8,1,1.8,2c0,1.2-0.9,2-2.5,2c-0.7,0-1.4-0.2-1.9-0.5L339.8,51.7z"/>
	</g>
</g>
<g enable-background="new    ">
	<path fill="#74C1B2" d="M228.4,67.2L228.4,67.2l-2.1,1.1l-0.3-1.2l2.6-1.4h1.3v11.7h-1.5L228.4,67.2L228.4,67.2z"/>
	<path fill="#74C1B2" d="M234.3,76.5c0-0.7,0.4-1.1,1.1-1.1s1.1,0.5,1.1,1.1c0,0.6-0.4,1.1-1.1,1.1
		C234.7,77.6,234.3,77.1,234.3,76.5z"/>
	<path fill="#74C1B2" d="M244.9,67h-4.5l-0.5,3c0.3,0,0.5-0.1,1-0.1c0.9,0,1.8,0.2,2.5,0.6c0.9,0.5,1.7,1.5,1.7,3c0,2.3-1.8,4-4.4,4
		c-1.3,0-2.4-0.4-2.9-0.7l0.4-1.2c0.5,0.3,1.4,0.6,2.5,0.6c1.5,0,2.8-1,2.8-2.5c0-1.5-1-2.6-3.4-2.6c-0.7,0-1.2,0.1-1.6,0.1l0.8-5.6
		h5.6L244.9,67L244.9,67z"/>
	<path fill="#74C1B2" d="M254.1,67h-4.5l-0.5,3c0.3,0,0.5-0.1,1-0.1c0.9,0,1.8,0.2,2.5,0.6c0.9,0.5,1.7,1.5,1.7,3c0,2.3-1.8,4-4.4,4
		c-1.3,0-2.4-0.4-2.9-0.7l0.4-1.2c0.5,0.3,1.4,0.6,2.5,0.6c1.5,0,2.8-1,2.8-2.5c0-1.5-1-2.6-3.4-2.6c-0.7,0-1.2,0.1-1.6,0.1l0.8-5.6
		h5.6L254.1,67L254.1,67z"/>
	<path fill="#74C1B2" d="M263,66.8c-0.3,0-0.7,0-1.2,0.1c-2.5,0.4-3.8,2.2-4.1,4.2h0.1c0.6-0.7,1.5-1.4,2.8-1.4
		c2.1,0,3.5,1.5,3.5,3.8c0,2.1-1.5,4.1-3.9,4.1c-2.5,0-4.1-1.9-4.1-5c0-2.3,0.8-4.1,2-5.3c1-1,2.3-1.5,3.7-1.7
		c0.5-0.1,0.9-0.1,1.2-0.1L263,66.8L263,66.8z M262.6,73.6c0-1.7-1-2.7-2.4-2.7c-1,0-1.8,0.6-2.3,1.4c-0.1,0.2-0.2,0.4-0.2,0.7
		c0,1.9,0.9,3.3,2.6,3.3C261.7,76.4,262.6,75.2,262.6,73.6z"/>
	<path fill="#74C1B2" d="M265.9,75.8c0.5,0.3,1.3,0.6,2.1,0.6c1.2,0,1.7-0.6,1.7-1.3c0-0.8-0.4-1.2-1.6-1.6
		c-1.6-0.6-2.3-1.4-2.3-2.5c0-1.4,1.1-2.6,3-2.6c0.9,0,1.7,0.3,2.1,0.5l-0.4,1.2c-0.3-0.2-1-0.5-1.8-0.5c-0.9,0-1.5,0.5-1.5,1.2
		c0,0.7,0.5,1,1.7,1.5c1.5,0.6,2.3,1.3,2.3,2.6c0,1.5-1.2,2.6-3.3,2.6c-1,0-1.8-0.2-2.4-0.6L265.9,75.8z"/>
</g>
<rect x="53.6" y="38.9" fill="#CCCCCC" width="242" height="16.7"/>
<rect x="53.6" y="130.3" fill="#CCCCCC" width="149.9" height="16.7"/>
<rect x="53.6" y="63.1" fill="#74C1B2" width="158.9" height="16.7"/>
<rect x="53.6" y="155.3" fill="#74C1B2" width="165.9" height="16.7"/>
<g enable-background="new    ">
	<path fill="#808080" d="M10.3,141.4l4.1-6v0h-3.8v-0.8h5v0.6l-4.1,6v0h4.1v0.8h-5.4V141.4z"/>
	<path fill="#808080" d="M20.8,138.5h-2.9v2.7h3.2v0.8h-4.2v-7.4h4v0.8h-3v2.3h2.9V138.5z"/>
	<path fill="#808080" d="M22.3,142v-7.4h1l2.4,3.8c0.5,0.9,1,1.6,1.3,2.4l0,0c-0.1-1-0.1-1.9-0.1-3v-3.1h0.9v7.4h-1l-2.4-3.8
		c-0.5-0.8-1-1.7-1.4-2.5l0,0c0.1,0.9,0.1,1.8,0.1,3.1v3.2H22.3z"/>
	<path fill="#808080" d="M33.7,135.8L33.7,135.8l-1.3,0.7l-0.2-0.7l1.6-0.8h0.8v7.2h-0.9L33.7,135.8L33.7,135.8z"/>
	<path fill="#808080" d="M37.3,141.4c0-0.4,0.3-0.7,0.7-0.7c0.4,0,0.6,0.3,0.6,0.7c0,0.4-0.3,0.7-0.7,0.7
		C37.5,142.1,37.3,141.8,37.3,141.4z"/>
	<path fill="#808080" d="M40.2,136.7l0.8,1.1c0.2,0.3,0.4,0.6,0.5,0.9h0c0.2-0.3,0.4-0.6,0.5-0.9l0.7-1.1h1l-1.8,2.6l1.9,2.8h-1.1
		l-0.8-1.2c-0.2-0.3-0.4-0.6-0.6-0.9h0c-0.2,0.3-0.4,0.6-0.6,0.9l-0.8,1.2h-1.1l1.9-2.7l-1.8-2.6H40.2z"/>
</g>
<g enable-background="new    ">
	<path fill="#74C1B2" d="M10.3,166.3l4.1-6v0h-3.8v-0.8h5v0.6l-4.1,6v0h4.1v0.8h-5.4V166.3z"/>
	<path fill="#74C1B2" d="M20.8,163.4h-2.9v2.7h3.2v0.8h-4.2v-7.4h4v0.8h-3v2.3h2.9V163.4z"/>
	<path fill="#74C1B2" d="M22.3,166.9v-7.4h1l2.4,3.8c0.5,0.9,1,1.6,1.3,2.4l0,0c-0.1-1-0.1-1.9-0.1-3v-3.1h0.9v7.4h-1l-2.4-3.8
		c-0.5-0.8-1-1.7-1.4-2.5l0,0c0.1,0.9,0.1,1.8,0.1,3.1v3.2L22.3,166.9L22.3,166.9z"/>
	<path fill="#74C1B2" d="M31.6,166.9v-0.6l0.8-0.7c1.8-1.7,2.7-2.7,2.7-3.7c0-0.7-0.4-1.4-1.4-1.4c-0.6,0-1.2,0.3-1.5,0.6l-0.3-0.7
		c0.5-0.4,1.2-0.7,2-0.7c1.5,0,2.2,1.1,2.2,2.1c0,1.3-1,2.4-2.5,3.8l-0.6,0.5v0h3.2v0.8L31.6,166.9L31.6,166.9z"/>
	<path fill="#74C1B2" d="M37.3,166.3c0-0.4,0.3-0.7,0.7-0.7c0.4,0,0.6,0.3,0.6,0.7c0,0.4-0.3,0.7-0.7,0.7
		C37.5,167,37.3,166.7,37.3,166.3z"/>
	<path fill="#74C1B2" d="M44.2,163.2c0,2.4-0.9,3.8-2.5,3.8c-1.4,0-2.3-1.3-2.4-3.7c0-2.4,1-3.7,2.5-3.7
		C43.4,159.6,44.2,160.9,44.2,163.2z M40.3,163.3c0,1.9,0.6,2.9,1.5,2.9c1,0,1.5-1.2,1.5-3c0-1.8-0.5-2.9-1.5-2.9
		C41,160.3,40.3,161.4,40.3,163.3z"/>
</g>
<g enable-background="new    ">
	<g enable-background="new    ">
		<path fill="#808080" d="M222.1,133.5c-0.3,0-0.6,0-0.9,0.1c-1.9,0.3-3,1.7-3.2,3.2h0c0.4-0.6,1.2-1.1,2.2-1.1
			c1.6,0,2.7,1.2,2.7,2.9c0,1.7-1.1,3.2-3,3.2c-1.9,0-3.2-1.5-3.2-3.9c0-1.8,0.6-3.2,1.5-4.1c0.8-0.7,1.8-1.2,2.9-1.3
			c0.4-0.1,0.7-0.1,0.9-0.1L222.1,133.5L222.1,133.5z M221.8,138.8c0-1.3-0.7-2.1-1.9-2.1c-0.7,0-1.4,0.5-1.8,1.1
			c-0.1,0.1-0.1,0.3-0.1,0.5c0,1.5,0.7,2.6,2,2.6C221.1,140.9,221.8,140.1,221.8,138.8z"/>
		<path fill="#808080" d="M229.5,133.7h-3.5l-0.4,2.3c0.2,0,0.4-0.1,0.7-0.1c0.7,0,1.4,0.2,2,0.5c0.7,0.4,1.3,1.2,1.3,2.3
			c0,1.8-1.4,3.1-3.4,3.1c-1,0-1.8-0.3-2.3-0.6l0.3-0.9c0.4,0.2,1.1,0.5,1.9,0.5c1.2,0,2.2-0.8,2.2-2c0-1.2-0.8-2-2.6-2
			c-0.5,0-0.9,0.1-1.3,0.1l0.6-4.4h4.4L229.5,133.7L229.5,133.7L229.5,133.7z"/>
	</g>
</g>
<g>
	<path fill="#74C1B2" d="M242.5,157.4v1l-5,10.5h-1.6l5-10.2v0h-5.6v-1.3H242.5z"/>
	<path fill="#74C1B2" d="M249,168.9v-3.1h-5.3v-1l5.1-7.3h1.7v7.2h1.6v1.2h-1.6v3.1H249z M249,164.5v-3.8c0-0.6,0-1.2,0.1-1.8H249
		c-0.4,0.7-0.6,1.2-1,1.7l-2.8,3.9v0L249,164.5L249,164.5z"/>
</g>
</svg>
