<?xml version="1.0" encoding="utf-8"?>
<!-- Generator: Adobe Illustrator 16.0.4, SVG Export Plug-In . SVG Version: 6.00 Build 0)  -->
<!DOCTYPE svg PUBLIC "-//W3C//DTD SVG 1.1//EN" "http://www.w3.org/Graphics/SVG/1.1/DTD/svg11.dtd">
<svg version="1.1" id="レイヤー_1" xmlns="http://www.w3.org/2000/svg" xmlns:xlink="http://www.w3.org/1999/xlink" x="0px"
	 y="0px" width="360px" height="200px" viewBox="0 0 360 200" enable-background="new 0 0 360 200" xml:space="preserve">
<path fill="#74C1B2" d="M242.9,42.699v94.294c0,7.627-6.24,13.868-13.866,13.868h-47.147c0,4.246,2.342,9.357,4.16,12.824
	c0.955,1.82,1.387,3.035,1.387,3.813c0,3.033-2.513,2.928-5.547,2.928h-44.374c-3.033,0-5.546,0.105-5.546-2.928
	c0-0.778,0.434-2.08,1.386-3.813c1.821-3.467,4.16-8.406,4.16-12.824H90.366c-7.625,0-13.866-6.241-13.866-13.868V42.699
	c0-7.626,6.241-13.867,13.866-13.867h138.668C236.66,28.833,242.9,35.073,242.9,42.699z M231.809,114.807V42.699
	c0-1.473-1.302-2.773-2.773-2.773H90.366c-1.472,0-2.773,1.3-2.773,2.773v72.107c0,1.473,1.301,2.772,2.773,2.772h138.668
	C230.507,117.58,231.809,116.279,231.809,114.807z"/>
<path fill="#FFFFFF" d="M272,148.674c0,2.941-2.385,5.326-5.326,5.326h-47.348c-2.941,0-5.326-2.385-5.326-5.326V71.326
	c0-2.941,2.385-5.326,5.326-5.326h47.348c2.941,0,5.326,2.385,5.326,5.326V148.674z"/>
<path fill="#74C1B2" d="M276.518,67.723v90.404c0,6.768-5.535,12.303-12.301,12.303h-43.682c-6.766,0-12.301-5.535-12.301-12.303
	V67.723c0-6.766,5.535-12.301,12.301-12.301h43.682C270.98,55.421,276.518,60.957,276.518,67.723z M266.677,148.287V74.483
	c0-1.306-1.153-2.46-2.46-2.46h-43.682c-1.307,0-2.461,1.154-2.461,2.46v73.804c0,1.311,1.154,2.46,2.461,2.46h43.682
	C265.523,150.747,266.677,149.598,266.677,148.287z M245.835,164.048c1-0.999,1.462-2.153,1.462-3.459c0-2.69-2.23-4.92-4.921-4.92
	s-4.921,2.229-4.921,4.92c0,2.688,2.23,4.921,4.921,4.921C243.684,165.51,244.836,165.048,245.835,164.048z"/>
<g>
	<path fill="#74C1B2" d="M147.367,74.104l-7.741,12.02v0.075h7.817v1.326h-9.861v-0.946l7.761-12.077v-0.057h-7.117V73.12h9.142
		L147.367,74.104L147.367,74.104z"/>
	<path fill="#74C1B2" d="M161.735,87.524h-7.61V73.101h7.288v1.325h-5.716v4.883h5.375v1.306h-5.375v5.583h6.038V87.524
		L161.735,87.524z"/>
	<path fill="#74C1B2" d="M178.641,87.524h-1.57l-4.602-7.59c-0.967-1.609-1.893-3.219-2.594-4.809l-0.074,0.02
		c0.131,1.836,0.15,3.521,0.15,6.019v6.361h-1.477V73.101h1.648l4.654,7.59c1.022,1.723,1.856,3.218,2.518,4.713l0.038-0.02
		c-0.15-2.007-0.19-3.729-0.19-6V73.1h1.498L178.641,87.524L178.641,87.524z"/>
</g>
<g>
	<path fill="#74C1B2" d="M234.633,105.077l-5.421,8.415v0.053h5.476v0.93h-6.905v-0.662l5.433-8.455v-0.041h-4.982v-0.928h6.401
		L234.633,105.077L234.633,105.077z"/>
	<path fill="#74C1B2" d="M244.691,114.475h-5.326v-10.099h5.103v0.927h-4.002v3.42h3.763v0.913h-3.763v3.909h4.228v0.93H244.691z"/>
	<path fill="#74C1B2" d="M256.527,114.475h-1.101l-3.221-5.313c-0.677-1.127-1.325-2.253-1.815-3.367l-0.053,0.015
		c0.092,1.284,0.105,2.465,0.105,4.213v4.453h-1.034v-10.098h1.153l3.26,5.314c0.716,1.205,1.3,2.25,1.764,3.299l0.025-0.014
		c-0.104-1.404-0.133-2.61-0.133-4.201v-4.398h1.047v10.098H256.527z"/>
</g>
</svg>
