<svg width="40" height="40" fill="none" xmlns="http://www.w3.org/2000/svg"><mask id="a" style="mask-type:alpha" maskUnits="userSpaceOnUse" x="0" y="0" width="40" height="40"><path fill="#D9D9D9" d="M0 0h40v40H0z"/></mask><g mask="url(#a)"><path d="M5 22.083V7.778c0-.75.275-1.4.826-1.952C6.377 5.276 7.028 5 7.778 5H18.61v17.083H5ZM21.389 5h10.833c.75 0 1.4.275 1.952.826.55.551.826 1.202.826 1.952v7.36H21.389V5Zm0 30V17.917H35v14.305c0 .75-.275 1.4-.826 1.952-.551.55-1.202.826-1.952.826H21.39ZM5 24.861h13.611V35H7.778c-.75 0-1.4-.275-1.952-.826-.55-.551-.826-1.202-.826-1.952v-7.36Zm2.778-5.556h8.055V7.778H7.778v11.527Zm16.389-6.944h8.055V7.778h-8.055v4.583Zm0 8.334v11.527h8.055V20.695h-8.055Zm-16.39 6.944v4.583h8.056V27.64H7.778Z" fill="#4B4B4B"/></g></svg>