<svg width="40" height="40" viewBox="0 0 40 40" fill="none" xmlns="http://www.w3.org/2000/svg">
<mask id="mask0_1636_463" style="mask-type:alpha" maskUnits="userSpaceOnUse" x="0" y="0" width="40" height="40">
<rect width="40" height="40" fill="#D9D9D9"/>
</mask>
<g mask="url(#mask0_1636_463)">
<path d="M5 22.0833V7.77792C5 7.02792 5.27542 6.37736 5.82625 5.82625C6.37736 5.27542 7.02792 5 7.77792 5H18.6113V22.0833H5ZM21.3888 5H32.2221C32.9721 5 33.6226 5.27542 34.1737 5.82625C34.7246 6.37736 35 7.02792 35 7.77792V15.1388H21.3888V5ZM21.3888 35V17.9167H35V32.2221C35 32.9721 34.7246 33.6226 34.1737 34.1737C33.6226 34.7246 32.9721 35 32.2221 35H21.3888ZM5 24.8613H18.6113V35H7.77792C7.02792 35 6.37736 34.7246 5.82625 34.1737C5.27542 33.6226 5 32.9721 5 32.2221V24.8613ZM7.77792 19.3054H15.8333V7.77792H7.77792V19.3054ZM24.1667 12.3612H32.2221V7.77792H24.1667V12.3612ZM24.1667 20.6946V32.2221H32.2221V20.6946H24.1667ZM7.77792 27.6387V32.2221H15.8333V27.6387H7.77792Z" fill="#4B4B4B"/>
</g>
</svg>
