<svg width="40" height="40" fill="none" xmlns="http://www.w3.org/2000/svg"><mask id="a" style="mask-type:alpha" maskUnits="userSpaceOnUse" x="0" y="0" width="40" height="40"><path fill="#D9D9D9" d="M0 0h40v40H0z"/></mask><g mask="url(#a)"><path d="m14.472 34.222-10.36-10.36a2.669 2.669 0 0 1-.584-.863 2.53 2.53 0 0 1 0-1.949 2.64 2.64 0 0 1 .583-.855l10.14-10.125-3.626-3.625a1.414 1.414 0 0 1-.437-1.014 1.405 1.405 0 0 1 .423-1.028 1.394 1.394 0 0 1 1.04-.444c.406 0 .758.148 1.058.444L28.5 20.195c.268.259.462.544.583.855a2.711 2.711 0 0 1 0 1.949c-.12.313-.315.6-.583.862L18.14 34.222a2.64 2.64 0 0 1-.855.584 2.53 2.53 0 0 1-1.948 0 2.67 2.67 0 0 1-.864-.584ZM16.32 12.14l-9.917 9.917h19.833L16.32 12.14ZM33.213 35c-.951 0-1.757-.333-2.417-.998-.66-.665-.99-1.48-.99-2.446 0-.737.155-1.433.465-2.088a9.984 9.984 0 0 1 1.146-1.857l.986-1.277a1.02 1.02 0 0 1 .826-.41.987.987 0 0 1 .827.396l1 1.291c.426.584.8 1.203 1.125 1.857.324.655.486 1.35.486 2.088 0 .965-.338 1.78-1.014 2.446a3.354 3.354 0 0 1-2.44.998Z" fill="#4B4B4B"/></g></svg>