<svg width="40" height="40" fill="none" xmlns="http://www.w3.org/2000/svg"><mask id="a" style="mask-type:alpha" maskUnits="userSpaceOnUse" x="0" y="0" width="40" height="40"><path fill="#D9D9D9" d="M0 0h40v40H0z"/></mask><g mask="url(#a)"><path d="M21.445 33.334v1.944c0 .393-.134.723-.401.99-.268.266-.598.399-.993.399s-.725-.133-.988-.4a1.35 1.35 0 0 1-.396-.989v-6.667c0-.393.133-.723.4-.99.267-.266.598-.399.993-.399s.725.133.989.4c.264.266.396.596.396.99v1.944H33.61c.394 0 .723.133.99.4.266.268.399.599.399.993 0 .395-.133.725-.4.989a1.35 1.35 0 0 1-.989.395H21.445Zm-15.056 0c-.394 0-.723-.134-.99-.401A1.35 1.35 0 0 1 5 31.94c0-.395.133-.725.4-.989a1.35 1.35 0 0 1 .989-.395h8.139c.398 0 .724.133.98.4.254.268.38.599.38.993 0 .395-.132.725-.398.989a1.35 1.35 0 0 1-.99.395H6.389Zm9.389-15.153h8.486l1.528 4.25c.092.265.254.481.486.65.231.168.496.253.795.253a1.33 1.33 0 0 0 1.163-.612c.278-.407.324-.838.139-1.291L21.82 4.222a1.307 1.307 0 0 0-.503-.652 1.407 1.407 0 0 0-.806-.236h-1.05a1.35 1.35 0 0 0-.805.25 1.382 1.382 0 0 0-.503.666L11.61 21.445c-.176.453-.125.882.153 1.284.277.403.657.605 1.14.605.314 0 .59-.088.825-.264a1.65 1.65 0 0 0 .535-.681l1.514-4.208Zm.917-2.486 3.25-9.153h.11l3.25 9.153h-6.61Z" fill="#4B4B4B"/></g></svg>