<svg width="40" height="40" fill="none" xmlns="http://www.w3.org/2000/svg"><mask id="a" style="mask-type:alpha" maskUnits="userSpaceOnUse" x="0" y="0" width="40" height="40"><path fill="#D9D9D9" d="M0 0h40v40H0z"/></mask><g mask="url(#a)"><path d="M7.778 35c-.75 0-1.4-.275-1.952-.826-.55-.551-.826-1.202-.826-1.952V7.778c0-.75.275-1.4.826-1.952C6.377 5.276 7.028 5 7.778 5h13.194c.394 0 .724.134.99.4.266.268.4.599.4.994s-.134.724-.4.988a1.35 1.35 0 0 1-.99.396H7.778v24.444h24.444V19.028c0-.394.134-.724.4-.99.268-.266.6-.4.994-.4.395 0 .724.134.988.4s.396.596.396.99v13.194c0 .75-.275 1.4-.826 1.952-.551.55-1.202.826-1.952.826H7.778ZM10 28.278h20l-6.083-8.111-5.195 6.86-3.86-5.11L10 28.277Zm18.695-16.945h-2.167c-.394 0-.724-.133-.99-.4a1.35 1.35 0 0 1-.4-.993c0-.395.134-.725.4-.989a1.35 1.35 0 0 1 .99-.396h2.167V6.39c0-.394.133-.723.4-.99.267-.266.598-.399.993-.399s.724.133.988.4c.264.266.396.595.396.989v2.166h2.14c.393 0 .722.134.989.401.266.267.399.598.399.993s-.133.725-.4.989a1.35 1.35 0 0 1-.989.395h-2.139v2.14c0 .393-.133.723-.4.989-.268.266-.599.4-.994.4-.394 0-.724-.134-.988-.4a1.35 1.35 0 0 1-.395-.99v-2.139Z" fill="#4B4B4B"/></g></svg>