<svg width="40" height="40" fill="none" xmlns="http://www.w3.org/2000/svg"><mask id="a" style="mask-type:alpha" maskUnits="userSpaceOnUse" x="0" y="0" width="40" height="40"><path fill="#D9D9D9" d="M0 0h40v40H0z"/></mask><g mask="url(#a)"><path d="M30.278 21.389c.393 0 .723-.134.99-.4.266-.268.399-.6.399-.994 0-.395-.133-.724-.4-.988a1.35 1.35 0 0 0-.989-.396h-5c-.393 0-.723.134-.99.4-.266.268-.4.599-.4.994s.134.724.4.988c.267.264.596.396.99.396h5Zm0-5c.393 0 .723-.134.99-.4.266-.268.399-.6.399-.994 0-.395-.133-.724-.4-.988a1.35 1.35 0 0 0-.989-.396h-5c-.393 0-.723.134-.99.4-.266.268-.4.599-.4.994s.134.724.4.988c.267.264.596.396.99.396h5ZM15 21.833c-1.037 0-1.955.09-2.754.271-.799.18-1.501.465-2.107.854-.565.324-1 .721-1.305 1.191a2.73 2.73 0 0 0-.459 1.517.93.93 0 0 0 .31.715c.208.19.46.285.76.285h11.11c.3 0 .553-.1.76-.299.207-.2.31-.451.31-.756 0-.485-.148-.956-.444-1.412-.297-.457-.727-.87-1.292-1.24-.611-.39-1.32-.674-2.125-.855-.806-.18-1.727-.27-2.764-.27Zm-.002-2.222c.863 0 1.602-.307 2.218-.922a3.017 3.017 0 0 0 .923-2.215c0-.862-.307-1.601-.921-2.217a3.017 3.017 0 0 0-2.216-.924c-.862 0-1.601.307-2.217.921a3.018 3.018 0 0 0-.924 2.216c0 .862.307 1.602.922 2.217a3.016 3.016 0 0 0 2.215.924ZM6.111 33.333c-.75 0-1.4-.275-1.951-.826-.551-.551-.827-1.202-.827-1.952V9.445c0-.75.276-1.401.827-1.952.55-.551 1.201-.827 1.951-.827H33.89c.75 0 1.4.276 1.952.827.55.55.826 1.201.826 1.951v21.111c0 .75-.276 1.4-.826 1.952-.552.55-1.202.826-1.952.826H6.11Zm0-2.778H33.89V9.445H6.11v21.11Z" fill="#4B4B4B"/></g></svg>