<?xml version="1.0" encoding="utf-8"?>
<!-- Generator: Adobe Illustrator 18.1.0, SVG Export Plug-In . SVG Version: 6.00 Build 0)  -->
<!DOCTYPE svg PUBLIC "-//W3C//DTD SVG 1.1//EN" "http://www.w3.org/Graphics/SVG/1.1/DTD/svg11.dtd">
<svg version="1.1" id="レイヤー_1" xmlns="http://www.w3.org/2000/svg" xmlns:xlink="http://www.w3.org/1999/xlink" x="0px"
	 y="0px" viewBox="0 0 40 40" enable-background="new 0 0 40 40" xml:space="preserve">
<g>
	<path fill="#A77DC2" d="M20,39.8c-3.9,0-7-8.7-7-19.8c0-11.1,3.1-19.8,7-19.8s7,8.7,7,19.8C27,31.1,23.9,39.8,20,39.8z M20,1.2
		c-2.9,0-6,7.6-6,18.8c0,11.3,3.1,18.8,6,18.8c2.9,0,6-7.6,6-18.8C26,8.7,22.9,1.2,20,1.2z"/>
	<path fill="#A77DC2" d="M7.2,32.1c-2,0-3.4-0.6-4.1-1.6C1.1,27.1,6.8,19.9,16.3,14c6.1-3.8,12.4-6.1,16.5-6.1c2,0,3.4,0.6,4.1,1.6
		c1,1.7,0.2,4.3-2.4,7.5c-2.5,3-6.3,6.2-10.7,8.9C17.6,29.7,11.3,32.1,7.2,32.1z M32.8,8.9c-3.9,0-10,2.3-16,6
		C7.3,20.8,2.5,27.4,4,29.9c0.6,1,2.1,1.2,3.2,1.2c3.9,0,10-2.3,16-6c4.3-2.7,8.1-5.8,10.5-8.7c2.3-2.8,3.1-5.1,2.4-6.3
		C35.4,9.1,33.9,8.9,32.8,8.9z"/>
	<path fill="#A77DC2" d="M32.8,32c-4.1,0-10.4-2.3-16.5-6C6.8,20.2,1,13,3.1,9.6C3.8,8.5,5.2,8,7.2,8c4.1,0,10.4,2.3,16.5,6.1
		c9.5,5.8,15.3,13,13.3,16.3C36.2,31.5,34.8,32,32.8,32z M7.2,9C6,9,4.5,9.2,3.9,10.2c-1.5,2.5,3.3,9.1,12.9,15
		c5.9,3.6,12.1,5.9,16,5.9c1.1,0,2.6-0.2,3.2-1.2c1.5-2.5-3.3-9.1-12.9-15C17.2,11.2,11.1,9,7.2,9z"/>
</g>
</svg>
