<?xml version="1.0" encoding="utf-8"?>
<!-- Generator: Adobe Illustrator 18.1.0, SVG Export Plug-In . SVG Version: 6.00 Build 0)  -->
<!DOCTYPE svg PUBLIC "-//W3C//DTD SVG 1.1//EN" "http://www.w3.org/Graphics/SVG/1.1/DTD/svg11.dtd">
<svg version="1.1" id="レイヤー_1" xmlns="http://www.w3.org/2000/svg" xmlns:xlink="http://www.w3.org/1999/xlink" x="0px"
	 y="0px" viewBox="0 0 32 32" enable-background="new 0 0 32 32" xml:space="preserve">
<path fill="#A77DC2" d="M7.8,30.1H3.2c-1.2,0-2.2-1-2.2-2.2V4.1c0-1.2,1-2.2,2.2-2.2h15.2v1H3.2C2.5,2.9,2,3.5,2,4.1v23.7
	c0,0.7,0.5,1.2,1.2,1.2h4.6V30.1z"/>
<g>
	<path fill="#A77DC2" d="M28.8,2.4h-7.3L10.7,29.6h18.1c0.9,0,1.7-0.8,1.7-1.7V4.1C30.5,3.2,29.7,2.4,28.8,2.4z"/>
	<path fill="#A77DC2" d="M28.8,30.1H9.9L21.1,1.9h7.7c1.2,0,2.2,1,2.2,2.2v23.7C31,29.1,30,30.1,28.8,30.1z M11.4,29.1h17.4
		c0.7,0,1.2-0.5,1.2-1.2V4.1c0-0.7-0.5-1.2-1.2-1.2h-7L11.4,29.1z"/>
</g>
</svg>
