<?xml version="1.0" encoding="utf-8"?>
<!-- Generator: Adobe Illustrator 18.1.0, SVG Export Plug-In . SVG Version: 6.00 Build 0)  -->
<!DOCTYPE svg PUBLIC "-//W3C//DTD SVG 1.1//EN" "http://www.w3.org/Graphics/SVG/1.1/DTD/svg11.dtd">
<svg version="1.1" id="レイヤー_1" xmlns="http://www.w3.org/2000/svg" xmlns:xlink="http://www.w3.org/1999/xlink" x="0px"
	 y="0px" viewBox="0 0 40 40" enable-background="new 0 0 40 40" xml:space="preserve">
<path fill="#A77DC2" d="M33.4,30.1H3.2c-1.3,0-2.3-1-2.3-2.3V3.9c0-1.3,1-2.3,2.3-2.3h30.2c1.3,0,2.3,1,2.3,2.3v23.9
	C35.7,29,34.7,30.1,33.4,30.1z M3.2,2.6c-0.7,0-1.3,0.6-1.3,1.3v23.9c0,0.7,0.6,1.3,1.3,1.3h30.2c0.7,0,1.3-0.6,1.3-1.3V3.9
	c0-0.7-0.6-1.3-1.3-1.3H3.2z"/>
<path fill="#A77DC2" d="M32.1,28.1H4.5V3.6h27.6V28.1z M5.5,27.1h25.6V4.6H5.5V27.1z"/>
<g>
	<path fill="#FFFFFF" d="M37,38.5H25.9c-1.1,0-2-0.9-2-2v-24c0-1.1,0.9-2,2-2H37c1.1,0,2,0.9,2,2v24C39.1,37.6,38.2,38.5,37,38.5z"
		/>
	<path fill="#A77DC2" d="M37,39H25.9c-1.4,0-2.5-1.1-2.5-2.5v-24c0-1.4,1.1-2.5,2.5-2.5H37c1.4,0,2.5,1.1,2.5,2.5v24
		C39.6,37.9,38.4,39,37,39z M25.9,11c-0.8,0-1.5,0.7-1.5,1.5v24c0,0.8,0.7,1.5,1.5,1.5H37c0.8,0,1.5-0.7,1.5-1.5v-24
		c0-0.8-0.7-1.5-1.5-1.5H25.9z"/>
</g>
<path fill="#A77DC2" d="M37.8,34H25.2V13.8h12.6V34z M26.2,33h10.6V14.8H26.2V33z"/>
<rect x="29.9" y="35.8" fill="#A77DC2" width="3.2" height="1"/>
</svg>
