<?xml version="1.0" encoding="utf-8"?>
<!-- Generator: Adobe Illustrator 18.1.0, SVG Export Plug-In . SVG Version: 6.00 Build 0)  -->
<!DOCTYPE svg PUBLIC "-//W3C//DTD SVG 1.1//EN" "http://www.w3.org/Graphics/SVG/1.1/DTD/svg11.dtd">
<svg version="1.1" id="レイヤー_1" xmlns="http://www.w3.org/2000/svg" xmlns:xlink="http://www.w3.org/1999/xlink" x="0px"
	 y="0px" viewBox="0 0 32 32" enable-background="new 0 0 32 32" xml:space="preserve">
<path fill="#A77DC2" d="M28.6,26.4H10.8c-0.3,0-0.5-0.2-0.5-0.5V0.8c0-0.3,0.2-0.5,0.5-0.5h11.4c0.1,0,0.3,0.1,0.4,0.1l6.4,6.3
	c0.1,0.1,0.1,0.2,0.1,0.4v18.8C29.1,26.2,28.9,26.4,28.6,26.4z M11.3,25.4h16.8V7.3l-6.1-6H11.3V25.4z"/>
<path fill="#A77DC2" d="M28.6,7.6h-6.4c-0.3,0-0.5-0.2-0.5-0.5V0.8h1v5.8h5.9V7.6z"/>
<path fill="#A77DC2" d="M21.9,31.7H4.1c-0.3,0-0.5-0.2-0.5-0.5V6.1c0-0.3,0.2-0.5,0.5-0.5h4.7v1H4.6v24.1h16.8v-3h1v3.5
	C22.4,31.5,22.2,31.7,21.9,31.7z"/>
</svg>
