<?xml version="1.0" encoding="utf-8"?>
<!-- Generator: Adobe Illustrator 18.1.0, SVG Export Plug-In . SVG Version: 6.00 Build 0)  -->
<!DOCTYPE svg PUBLIC "-//W3C//DTD SVG 1.1//EN" "http://www.w3.org/Graphics/SVG/1.1/DTD/svg11.dtd">
<svg version="1.1" id="レイヤー_1" xmlns="http://www.w3.org/2000/svg" xmlns:xlink="http://www.w3.org/1999/xlink" x="0px"
	 y="0px" viewBox="0 0 32 32" enable-background="new 0 0 32 32" xml:space="preserve">
<path fill="#A77DC2" d="M25.9,10.7c-2.6,0-4.7-2.1-4.7-4.7s2.1-4.7,4.7-4.7s4.7,2.1,4.7,4.7S28.5,10.7,25.9,10.7z M25.9,2.3
	c-2.1,0-3.7,1.7-3.7,3.7c0,2.1,1.7,3.7,3.7,3.7S29.6,8,29.6,6C29.6,3.9,27.9,2.3,25.9,2.3z"/>
<path fill="#A77DC2" d="M6.1,20.2c-2.6,0-4.7-2.1-4.7-4.7c0-2.6,2.1-4.7,4.7-4.7s4.7,2.1,4.7,4.7C10.8,18.1,8.7,20.2,6.1,20.2z
	 M6.1,11.8c-2.1,0-3.7,1.7-3.7,3.7c0,2.1,1.7,3.7,3.7,3.7c2.1,0,3.7-1.7,3.7-3.7C9.8,13.4,8.2,11.8,6.1,11.8z"/>
<path fill="#A77DC2" d="M25.9,30.6c-2.6,0-4.7-2.1-4.7-4.7s2.1-4.7,4.7-4.7s4.7,2.1,4.7,4.7S28.5,30.6,25.9,30.6z M25.9,22.1
	c-2.1,0-3.7,1.7-3.7,3.7s1.7,3.7,3.7,3.7s3.7-1.7,3.7-3.7S27.9,22.1,25.9,22.1z"/>
<rect x="15.3" y="4.4" transform="matrix(0.4472 0.8944 -0.8944 0.4472 18.4937 -8.1056)" fill="#A77DC2" width="1" height="13"/>
<rect x="8.9" y="20.4" transform="matrix(0.8772 0.4802 -0.4802 0.8772 11.9491 -4.9679)" fill="#A77DC2" width="13.5" height="1"/>
</svg>
