<?xml version="1.0" encoding="utf-8"?>
<!-- Generator: Adobe Illustrator 18.1.0, SVG Export Plug-In . SVG Version: 6.00 Build 0)  -->
<!DOCTYPE svg PUBLIC "-//W3C//DTD SVG 1.1//EN" "http://www.w3.org/Graphics/SVG/1.1/DTD/svg11.dtd">
<svg version="1.1" id="レイヤー_1" xmlns="http://www.w3.org/2000/svg" xmlns:xlink="http://www.w3.org/1999/xlink" x="0px"
	 y="0px" viewBox="0 0 32 32" enable-background="new 0 0 32 32" xml:space="preserve">
<g>
	<path fill="#A77DC2" d="M29.3,28.8H2.7c-0.3,0-0.5,0.2-0.5,0.5c0,0.3,0.2,0.5,0.5,0.5h26.7c0.3,0,0.5-0.2,0.5-0.5
		C29.8,29.1,29.6,28.8,29.3,28.8z"/>
	<path fill="#A77DC2" d="M5.9,26.5h6.8h6.7H26c0.3,0,0.5-0.2,0.5-0.5V9.3c0-0.3-0.2-0.5-0.5-0.5h-6.2V2.7c0-0.3-0.2-0.5-0.5-0.5
		h-6.7c-0.3,0-0.5,0.2-0.5,0.5v12.8H5.9c-0.3,0-0.5,0.2-0.5,0.5v10C5.4,26.3,5.6,26.5,5.9,26.5z M19.8,9.8h5.7v15.7h-5.7V9.8z
		 M13.2,16V3.2h5.7v6.2v16.2h-5.7V16z M6.4,16.5h5.8v9H6.4V16.5z"/>
</g>
</svg>
