<?xml version="1.0" encoding="utf-8"?>
<!-- Generator: Adobe Illustrator 18.1.0, SVG Export Plug-In . SVG Version: 6.00 Build 0)  -->
<!DOCTYPE svg PUBLIC "-//W3C//DTD SVG 1.1//EN" "http://www.w3.org/Graphics/SVG/1.1/DTD/svg11.dtd">
<svg version="1.1" id="レイヤー_1" xmlns="http://www.w3.org/2000/svg" xmlns:xlink="http://www.w3.org/1999/xlink" x="0px"
	 y="0px" viewBox="0 0 40 40" enable-background="new 0 0 40 40" xml:space="preserve">
<path fill="#A77DC2" d="M20,39.9C9,39.9,0.1,31,0.1,20S9,0.1,20,0.1C31,0.1,39.9,9,39.9,20S31,39.9,20,39.9z M20,1.1
	C9.6,1.1,1.1,9.6,1.1,20c0,10.4,8.5,18.9,18.9,18.9S38.9,30.4,38.9,20C38.9,9.6,30.4,1.1,20,1.1z"/>
<path fill="#A77DC2" d="M6.2,33.8l-0.9-0.5c0.4-0.7,1.2-1.4,2.5-2.2c0.6-0.4,1.6-0.6,2.8-0.8c0.8-0.2,1.6-0.3,2.3-0.6
	c1.6-0.5,3.4-1.7,3.6-2c0,0,0,0,0,0c0,0,0.1-0.2,0.2-0.8c-0.5-0.3-1-0.7-1.4-1.1c-0.9-0.9-1.6-3.2-1.8-4c-0.4-0.2-1.2-0.8-1.5-1.8
	c-0.3-1.2,0.1-1.9,0.6-2.3c-0.2-0.9-0.7-3.4-0.8-5.1c-0.1-2,1-4.5,3-6.6c2.1-2.2,8-1.4,8.5-1.1c0.2,0.2,0.6,0.6,0.9,0.9
	c0.5,0.1,1.6,0.4,2.7,1c1.3,0.9,1.9,2.4,1.9,5.9c0.1,2.6-0.6,4.2-0.9,5c0.4,0.4,0.7,1.1,0.4,2.2c-0.3,1-1.2,1.7-1.7,1.9
	c-0.2,0.7-1,2.8-1.6,3.7c-0.4,0.6-1.1,1.1-1.7,1.4c0.1,0.6,0.2,0.7,0.2,0.8c0.2,0.3,2,1.4,3.6,2c0.7,0.2,1.5,0.4,2.3,0.6
	c1.2,0.2,2.2,0.4,2.8,0.8c0.5,0.3,1.8,1.2,2.2,2.1l-0.9,0.4c-0.2-0.5-0.9-1.1-1.8-1.7c-0.5-0.3-1.5-0.5-2.4-0.7
	c-0.8-0.2-1.7-0.4-2.5-0.6c-1.7-0.6-3.6-1.8-4.1-2.3c-0.2-0.2-0.3-0.5-0.5-1.6l0-0.3l0.3-0.2c0.8-0.4,1.4-0.9,1.7-1.2
	c0.6-1,1.6-3.7,1.6-3.7l0.1-0.2l0.2-0.1c0,0,1.1-0.5,1.3-1.3c0.3-1-0.3-1.3-0.3-1.3l-0.5-0.2l0.3-0.5c0,0,1.1-1.7,1-4.8
	c-0.1-3.1-0.5-4.5-1.5-5.1c-1.1-0.7-2.4-0.9-2.5-0.9l-0.2,0l-0.1-0.2c-0.3-0.4-0.7-0.8-0.8-0.9c-0.5-0.1-5.7-0.8-7.3,0.9
	c-1.8,2-2.9,4.2-2.8,5.9c0.1,1.9,0.9,5.2,0.9,5.2l0.1,0.4l-0.4,0.2c-0.1,0.1-0.7,0.4-0.4,1.4c0.2,0.8,1.1,1.3,1.1,1.3l0.2,0.1
	l0.1,0.2c0.2,0.8,1,3.1,1.7,3.8c0.3,0.3,0.8,0.7,1.5,1.1l0.3,0.2l0,0.3c-0.1,1.2-0.3,1.5-0.5,1.7c-0.4,0.5-2.4,1.7-4.1,2.3
	c-0.8,0.2-1.6,0.4-2.5,0.6c-1,0.2-2,0.4-2.4,0.7C6.9,32.9,6.4,33.5,6.2,33.8z"/>
</svg>
