<?xml version="1.0" encoding="utf-8"?>
<!-- Generator: Adobe Illustrator 18.1.0, SVG Export Plug-In . SVG Version: 6.00 Build 0)  -->
<!DOCTYPE svg PUBLIC "-//W3C//DTD SVG 1.1//EN" "http://www.w3.org/Graphics/SVG/1.1/DTD/svg11.dtd">
<svg version="1.1" id="レイヤー_1" xmlns="http://www.w3.org/2000/svg" xmlns:xlink="http://www.w3.org/1999/xlink" x="0px"
	 y="0px" viewBox="0 0 32 32" enable-background="new 0 0 32 32" xml:space="preserve">
<path fill="#A77DC2" d="M13.4,29c-0.1,0-0.3-0.1-0.4-0.1L0.5,16.3c-0.2-0.2-0.2-0.5,0-0.7L13.7,2.4c0.2-0.2,0.5-0.2,0.7,0L27,14.9
	c0.1,0.1,0.1,0.2,0.1,0.4s-0.1,0.3-0.1,0.4L13.7,28.9C13.6,29,13.5,29,13.4,29z M1.5,16l11.8,11.8l12.6-12.6L14.1,3.4L1.5,16z"/>
<path fill="#A77DC2" d="M28.3,25c-0.1,0-0.2,0-0.2-0.1c-0.2-0.1-0.3-0.4-0.2-0.6c0,0,0.7-2.4-0.5-4.4c-1.2-1.9-2-2.1-2-2.1
	c-0.3-0.1-0.4-0.3-0.4-0.6c0-0.3,0.3-0.5,0.5-0.4c0.2,0,1.4,0.3,2.8,2.6c0.6,1,0.8,2,0.9,2.9c1-2,2-5.5,0.3-9.5
	c-2.9-6.7-9.4-4.4-9.7-4.3c-0.3,0.1-0.5,0-0.6-0.3c-0.1-0.3,0-0.5,0.3-0.6c0.1,0,7.6-2.7,10.9,4.8c2.9,6.7-1.4,12.1-1.5,12.4
	C28.6,24.9,28.5,25,28.3,25z"/>
<path fill="#A77DC2" d="M16.3,13C16.3,13,16.3,13,16.3,13c-1.2,0-12-0.4-13.6-3.9c-0.5-1-0.2-2.2,0.9-3.4c2.9-3.4,9-2,9.3-2
	c0.3,0.1,0.4,0.3,0.4,0.6c-0.1,0.3-0.3,0.4-0.6,0.4c-0.1,0-5.8-1.3-8.3,1.6c-0.8,0.9-1,1.7-0.7,2.3c1.2,2.5,9.6,3.1,12.7,3.2
	c0.3,0,0.5,0.4,0.5,0.6C16.8,12.6,16.5,13,16.3,13z"/>
</svg>
