<?xml version="1.0" encoding="utf-8"?>
<!-- Generator: Adobe Illustrator 18.1.0, SVG Export Plug-In . SVG Version: 6.00 Build 0)  -->
<!DOCTYPE svg PUBLIC "-//W3C//DTD SVG 1.1//EN" "http://www.w3.org/Graphics/SVG/1.1/DTD/svg11.dtd">
<svg version="1.1" id="レイヤー_1" xmlns="http://www.w3.org/2000/svg" xmlns:xlink="http://www.w3.org/1999/xlink" x="0px"
	 y="0px" viewBox="0 0 32 32" enable-background="new 0 0 32 32" xml:space="preserve">
<g>
	<path fill="#A77DC2" d="M16,9.6c-3.5,0-6.4,2.9-6.4,6.4c0,3.5,2.9,6.4,6.4,6.4c3.5,0,6.4-2.9,6.4-6.4C22.3,12.5,19.5,9.6,16,9.6z
		 M16,21.2c-2.9,0-5.2-2.3-5.2-5.2c0-2.9,2.3-5.2,5.2-5.2c2.9,0,5.2,2.3,5.2,5.2C21.2,18.8,18.8,21.2,16,21.2z"/>
	<path fill="#A77DC2" d="M31.4,11.6l-3.7-0.5L30,8.2c0.2-0.2,0.2-0.6,0-0.8L24.6,2c-0.2-0.2-0.5-0.2-0.8,0l-2.9,2.3l-0.5-3.7
		c0-0.3-0.3-0.5-0.6-0.5h-7.7c-0.3,0-0.5,0.2-0.6,0.5l-0.5,3.7L8.2,1.9C7.9,1.7,7.6,1.8,7.4,2L2,7.4c-0.2,0.2-0.2,0.5,0,0.8l2.3,2.9
		l-3.7,0.5c-0.3,0-0.5,0.3-0.5,0.6v7.7c0,0.3,0.2,0.5,0.5,0.6l3.7,0.5l-2.3,2.9c-0.2,0.2-0.2,0.6,0,0.8L7.4,30
		c0.2,0.2,0.5,0.2,0.8,0l2.9-2.3l0.5,3.7c0,0.3,0.3,0.5,0.6,0.5h7.7c0.3,0,0.5-0.2,0.6-0.5l0.5-3.7l2.9,2.3c0.2,0.2,0.6,0.2,0.8,0
		l5.4-5.4c0.2-0.2,0.2-0.5,0-0.8l-2.3-2.9l3.7-0.5c0.3,0,0.5-0.3,0.5-0.6v-7.7C32,11.8,31.7,11.6,31.4,11.6z M30.8,19.3l-4.2,0.5
		c-0.2,0-0.4,0.2-0.5,0.4c-0.1,0.2-0.1,0.4,0.1,0.6l2.6,3.3l-4.7,4.7l-3.3-2.6c-0.2-0.1-0.4-0.2-0.6-0.1c-0.2,0.1-0.3,0.3-0.4,0.5
		l-0.5,4.2h-6.7l-0.5-4.2c0-0.2-0.2-0.4-0.4-0.5c-0.2-0.1-0.4,0-0.6,0.1l-3.3,2.6l-4.7-4.7l2.6-3.3c0.1-0.2,0.2-0.4,0.1-0.6
		c-0.1-0.2-0.3-0.3-0.5-0.4l-4.2-0.5v-6.7l4.2-0.5c0.2,0,0.4-0.2,0.5-0.4c0.1-0.2,0-0.4-0.1-0.6L3.1,7.9l4.7-4.7l3.3,2.6
		c0.2,0.1,0.4,0.2,0.6,0.1c0.2-0.1,0.3-0.3,0.4-0.5l0.5-4.2h6.7l0.5,4.2c0,0.2,0.2,0.4,0.4,0.5c0.2,0.1,0.4,0,0.6-0.1l3.3-2.6
		l4.7,4.7l-2.6,3.3c-0.1,0.2-0.2,0.4-0.1,0.6c0.1,0.2,0.3,0.3,0.5,0.4l4.2,0.5V19.3z"/>
</g>
</svg>
