<?xml version="1.0" encoding="utf-8"?>
<!-- Generator: Adobe Illustrator 18.1.0, SVG Export Plug-In . SVG Version: 6.00 Build 0)  -->
<!DOCTYPE svg PUBLIC "-//W3C//DTD SVG 1.1//EN" "http://www.w3.org/Graphics/SVG/1.1/DTD/svg11.dtd">
<svg version="1.1" id="レイヤー_1" xmlns="http://www.w3.org/2000/svg" xmlns:xlink="http://www.w3.org/1999/xlink" x="0px"
	 y="0px" viewBox="0 0 32 32" enable-background="new 0 0 32 32" xml:space="preserve">
<path fill="#A77DC2" d="M24,8.5H8C7.2,8.5,6.5,7.8,6.5,7V4c0-0.8,0.7-1.5,1.5-1.5H24c0.8,0,1.5,0.7,1.5,1.5V7
	C25.5,7.8,24.8,8.5,24,8.5z M8,3.5C7.7,3.5,7.5,3.7,7.5,4V7c0,0.2,0.2,0.5,0.5,0.5H24c0.2,0,0.5-0.2,0.5-0.5V4
	c0-0.2-0.2-0.5-0.5-0.5H8z"/>
<path fill="#A77DC2" d="M5,28H2c-0.8,0-1.5-0.7-1.5-1.5v-5.1C0.5,20.7,1.2,20,2,20H5c0.8,0,1.5,0.7,1.5,1.5v5.1
	C6.5,27.3,5.8,28,5,28z M2,21c-0.2,0-0.5,0.2-0.5,0.5v5.1C1.5,26.8,1.7,27,2,27H5c0.2,0,0.5-0.2,0.5-0.5v-5.1C5.5,21.2,5.3,21,5,21
	H2z"/>
<path fill="#A77DC2" d="M17.5,28h-3.1c-0.8,0-1.5-0.7-1.5-1.5v-5.1c0-0.8,0.7-1.5,1.5-1.5h3.1c0.8,0,1.5,0.7,1.5,1.5v5.1
	C19,27.3,18.3,28,17.5,28z M14.5,21c-0.2,0-0.5,0.2-0.5,0.5v5.1c0,0.2,0.2,0.5,0.5,0.5h3.1c0.2,0,0.5-0.2,0.5-0.5v-5.1
	c0-0.2-0.2-0.5-0.5-0.5H14.5z"/>
<path fill="#A77DC2" d="M30,28H27c-0.8,0-1.5-0.7-1.5-1.5v-5.1c0-0.8,0.7-1.5,1.5-1.5H30c0.8,0,1.5,0.7,1.5,1.5v5.1
	C31.5,27.3,30.8,28,30,28z M27,21c-0.2,0-0.5,0.2-0.5,0.5v5.1c0,0.2,0.2,0.5,0.5,0.5H30c0.2,0,0.5-0.2,0.5-0.5v-5.1
	c0-0.2-0.2-0.5-0.5-0.5H27z"/>
<rect x="15.5" y="8" fill="#A77DC2" width="1" height="12"/>
<path fill="#A77DC2" d="M29,20h-1v-5.1c0-0.4-0.2-0.9-0.4-0.9H4.4C4.2,14,4,14.4,4,14.9V20H3v-5.1C3,14.1,3.4,13,4.4,13h23.2
	c1,0,1.4,1.1,1.4,1.9V20z"/>
</svg>
