<?xml version="1.0" encoding="utf-8"?>
<!-- Generator: Adobe Illustrator 18.1.0, SVG Export Plug-In . SVG Version: 6.00 Build 0)  -->
<!DOCTYPE svg PUBLIC "-//W3C//DTD SVG 1.1//EN" "http://www.w3.org/Graphics/SVG/1.1/DTD/svg11.dtd">
<svg version="1.1" id="レイヤー_1" xmlns="http://www.w3.org/2000/svg" xmlns:xlink="http://www.w3.org/1999/xlink" x="0px"
	 y="0px" viewBox="0 0 32 32" enable-background="new 0 0 32 32" xml:space="preserve">
<path fill="#A77DC2" d="M3.7,17.6h-1v-7.3c0-2.3,1.9-4.1,4.1-4.1h23v1h-23c-1.7,0-3.1,1.4-3.1,3.1V17.6z"/>
<polygon fill="#A77DC2" points="25.2,12 24.5,11.3 29.1,6.7 24.5,2.1 25.2,1.4 30.6,6.7 "/>
<path fill="#A77DC2" d="M25.7,25.1h-23v-1h23c1.7,0,3.1-1.4,3.1-3.1v-7.3h1V21C29.8,23.2,28,25.1,25.7,25.1z"/>
<polygon fill="#A77DC2" points="7.3,29.9 2,24.6 7.3,19.3 8,20 3.4,24.6 8,29.2 "/>
</svg>
