<svg width="40" height="40" fill="none" xmlns="http://www.w3.org/2000/svg"><mask id="a" style="mask-type:alpha" maskUnits="userSpaceOnUse" x="0" y="0" width="40" height="40"><path fill="#D9D9D9" d="M0 0h40v40H0z"/></mask><g mask="url(#a)"><path d="m14.389 26.694-1.43 5.625a1.248 1.248 0 0 1-.445.736 1.272 1.272 0 0 1-.82.278c-.435 0-.791-.171-1.07-.514a1.211 1.211 0 0 1-.235-1.153l1.25-4.972H6.764c-.445 0-.81-.178-1.097-.535a1.261 1.261 0 0 1-.25-1.187c.064-.315.222-.57.472-.764.25-.194.541-.291.875-.291h5.57l1.971-7.834H9.43c-.444 0-.81-.178-1.097-.534a1.262 1.262 0 0 1-.25-1.188c.065-.315.222-.57.472-.764.25-.194.542-.292.875-.292H15l1.403-5.625a1.24 1.24 0 0 1 .444-.736c.232-.185.505-.277.82-.277.435 0 .787.166 1.055.5.269.333.352.712.25 1.138l-1.222 5h7.861l1.403-5.625c.065-.305.213-.55.444-.736.232-.185.505-.277.82-.277.435 0 .787.166 1.055.5.269.333.352.712.25 1.138l-1.222 5h4.875c.445 0 .81.179 1.097.535.287.357.37.752.25 1.188-.064.314-.222.57-.472.763a1.38 1.38 0 0 1-.875.292h-5.57l-1.971 7.834h4.875c.444 0 .81.178 1.097.534.286.357.37.753.25 1.188a1.26 1.26 0 0 1-.473.764c-.25.194-.541.291-.874.291H25l-1.43 5.625a1.248 1.248 0 0 1-.445.736 1.272 1.272 0 0 1-.82.278c-.435 0-.791-.171-1.069-.514A1.212 1.212 0 0 1 21 31.666l1.25-4.972h-7.861Zm.694-2.777h7.862l1.972-7.834h-7.862l-1.972 7.834Z" fill="#4B4B4B"/></g></svg>