<svg width="40" height="40" fill="none" xmlns="http://www.w3.org/2000/svg"><mask id="a" style="mask-type:alpha" maskUnits="userSpaceOnUse" x="0" y="0" width="40" height="40"><path fill="#D9D9D9" d="M0 0h40v40H0z"/></mask><g mask="url(#a)"><path d="M20 36.667c-2.315 0-4.486-.433-6.514-1.299-2.027-.866-3.794-2.05-5.298-3.555-1.505-1.505-2.69-3.271-3.556-5.3-.866-2.027-1.298-4.198-1.298-6.513 0-2.319.432-4.491 1.298-6.517.866-2.026 2.05-3.79 3.556-5.295 1.504-1.505 3.27-2.69 5.298-3.556 2.028-.866 4.2-1.298 6.514-1.298 2.32 0 4.492.432 6.517 1.298 2.026.866 3.79 2.05 5.296 3.556 1.504 1.504 2.69 3.27 3.555 5.295.866 2.026 1.299 4.198 1.299 6.517 0 2.315-.433 4.486-1.299 6.514-.866 2.028-2.05 3.794-3.555 5.299a16.673 16.673 0 0 1-5.296 3.555c-2.025.866-4.198 1.299-6.517 1.299Zm.006-9.361c1.7 0 3.355.238 4.966.715a17.144 17.144 0 0 1 4.556 2.118 14.198 14.198 0 0 0 3.222-4.616A13.692 13.692 0 0 0 33.89 20c0-3.877-1.346-7.161-4.036-9.852C27.162 7.457 23.877 6.11 20 6.11s-7.161 1.346-9.852 4.037C7.457 12.838 6.11 16.123 6.11 20c0 1.937.378 3.785 1.132 5.543A13.34 13.34 0 0 0 10.5 30.14a16.694 16.694 0 0 1 4.534-2.118 17.467 17.467 0 0 1 4.972-.715ZM20 30.083c-1.213 0-2.412.163-3.597.487-1.185.324-2.329.8-3.43 1.43a15.47 15.47 0 0 0 3.43 1.403 13.584 13.584 0 0 0 7.194 0A15.47 15.47 0 0 0 27.028 32a14.708 14.708 0 0 0-3.43-1.43A13.576 13.576 0 0 0 20 30.084Zm-8.69-12.25c.396 0 .725-.133.989-.4s.396-.598.396-.993-.134-.725-.401-.989a1.357 1.357 0 0 0-.993-.395c-.395 0-.724.133-.988.4a1.357 1.357 0 0 0-.396.993 1.36 1.36 0 0 0 1.394 1.385Zm5.306-5.166c.395 0 .724-.134.988-.401s.396-.598.396-.993-.133-.724-.4-.988a1.357 1.357 0 0 0-.994-.396c-.395 0-.724.134-.988.4a1.358 1.358 0 0 0-.396.994c0 .395.134.724.401.988s.598.396.993.396Zm12.111 5.167c.395 0 .725-.134.989-.401s.395-.598.395-.993-.133-.725-.4-.989a1.357 1.357 0 0 0-.993-.395c-.395 0-.725.133-.989.4a1.357 1.357 0 0 0-.395.993c0 .395.133.725.4.989s.598.396.993.396Zm-8.729 5.305c.863 0 1.602-.307 2.218-.922A3.02 3.02 0 0 0 23.139 20c0-.399-.074-.79-.222-1.174a2.818 2.818 0 0 0-.639-.992l2.61-6.223c.158-.352.175-.701.05-1.048a1.278 1.278 0 0 0-.725-.757c-.336-.158-.689-.16-1.057-.01a1.33 1.33 0 0 0-.767.788l-2.667 6.277a3.105 3.105 0 0 0-2.041 1.021A3.035 3.035 0 0 0 16.86 20c0 .863.308 1.602.922 2.217a3.019 3.019 0 0 0 2.215.922Z" fill="#4B4B4B"/></g></svg>