<?xml version="1.0" encoding="utf-8"?>
<!-- Generator: Adobe Illustrator 16.0.4, SVG Export Plug-In . SVG Version: 6.00 Build 0)  -->
<!DOCTYPE svg PUBLIC "-//W3C//DTD SVG 1.1//EN" "http://www.w3.org/Graphics/SVG/1.1/DTD/svg11.dtd">
<svg version="1.1" id="レイヤー_1" xmlns="http://www.w3.org/2000/svg" xmlns:xlink="http://www.w3.org/1999/xlink" x="0px"
	 y="0px" width="80px" height="80px" viewBox="0 0 80 80" enable-background="new 0 0 80 80" xml:space="preserve">
<g>
	<path fill="#EFD7DD" d="M80,75.4c0,2.9-1.6,4.6-4.4,4.6h-70c-3,0-5.6-1.7-5.6-4.6v-70C0,2.6,2.6,0,5.5,0h70C78.4,0,80,2.6,80,5.5
		V75.4z"/>
	<path fill="#E4B8C5" d="M24.9,55.7L49.2,80h27.4c0,0,3.4-0.4,3.4-4.6c0-4.2,0-26.8,0-26.8L58.1,26.8l-2.2,11.4L42.7,54.9L24.9,55.7
		z"/>
	<polyline fill="#E4B8C5" points="40.7,24 45.2,28.7 49.1,25.4 54.6,25.6 58.1,27.6 60.9,34.2 49,49.8 44.9,55.9 29,55.7 29,24 	"/>
	<g>
		<path fill="#FFFFFF" d="M24.9,30h-8.8v-6h24.6v6H32v25.7h-7.1V30z"/>
		<path fill="#FFFFFF" d="M40.8,51.6c7.9-7.4,13.4-12.7,13.4-17.1c0-3-1.7-4.7-4.4-4.7c-2.2,0-3.9,1.5-5.5,3.2l-3.9-3.8
			c3.1-3.3,5.9-4.9,10.4-4.9c6.1,0,10.2,3.9,10.2,9.8c0,5.2-4.9,10.7-9.9,16c1.6-0.2,3.7-0.4,5.2-0.4h6.2v6H40.8V51.6z"/>
	</g>
</g>
</svg>
