<?xml version="1.0" encoding="utf-8"?>
<!-- Generator: Adobe Illustrator 16.0.4, SVG Export Plug-In . SVG Version: 6.00 Build 0)  -->
<!DOCTYPE svg PUBLIC "-//W3C//DTD SVG 1.1//EN" "http://www.w3.org/Graphics/SVG/1.1/DTD/svg11.dtd">
<svg version="1.1" id="レイヤー_1" xmlns="http://www.w3.org/2000/svg" xmlns:xlink="http://www.w3.org/1999/xlink" x="0px"
	 y="0px" width="80px" height="80px" viewBox="0 0 80 80" enable-background="new 0 0 80 80" xml:space="preserve">
<path fill="#E4B8C5" d="M60.7,12.7L68,20c0.4,0.5,0.7,1,0.7,1.7c0,0.7-0.2,1.2-0.7,1.7L20.7,70.6c-0.5,0.5-1,0.7-1.7,0.7
	s-1.2-0.2-1.7-0.7l-7.3-7.3c-0.5-0.5-0.7-1-0.7-1.7c0-0.7,0.2-1.2,0.7-1.7l47.3-47.3c0.5-0.5,1-0.7,1.7-0.7
	C59.6,12.1,60.2,12.3,60.7,12.7z M48.2,28.5l3.9,3.9l10.8-10.7L59,17.7L48.2,28.5z"/>
<polygon fill="#E4B8C5" points="17.8,11.1 18.9,14.7 22.5,15.8 18.9,16.9 17.8,20.5 16.7,16.9 13.1,15.8 16.7,14.7 "/>
<polygon fill="#E4B8C5" points="64.9,34.6 66,38.2 69.6,39.3 66,40.4 64.9,44 63.8,40.4 60.2,39.3 63.8,38.2 "/>
<polygon fill="#E4B8C5" points="41.4,11.1 42.4,14.7 46,15.8 42.4,16.9 41.4,20.5 40.3,16.9 36.7,15.8 40.3,14.7 "/>
<polygon fill="#E4B8C5" points="29.6,13.5 31.8,20.7 39,22.8 31.8,25 29.6,32.2 27.4,25 20.1,22.8 27.4,20.7 "/>
</svg>
