<?xml version="1.0" encoding="utf-8"?>
<!-- Generator: Adobe Illustrator 16.0.4, SVG Export Plug-In . SVG Version: 6.00 Build 0)  -->
<!DOCTYPE svg PUBLIC "-//W3C//DTD SVG 1.1//EN" "http://www.w3.org/Graphics/SVG/1.1/DTD/svg11.dtd">
<svg version="1.1" id="レイヤー_1" xmlns="http://www.w3.org/2000/svg" xmlns:xlink="http://www.w3.org/1999/xlink" x="0px"
	 y="0px" width="60px" height="60px" viewBox="0 0 60 60" enable-background="new 0 0 60 60" xml:space="preserve">
<path fill="#EF7B8E" d="M59.9,30.8L44.5,46.1c-0.2,0.2-0.5,0.3-0.8,0.3s-0.5-0.1-0.8-0.3l-1.6-1.6c-0.2-0.2-0.3-0.5-0.3-0.8
	c0-0.3,0.1-0.5,0.3-0.8L54.3,30L41.4,17.1c-0.2-0.2-0.3-0.5-0.3-0.8c0-0.3,0.1-0.5,0.3-0.8l1.6-1.6c0.2-0.2,0.5-0.3,0.8-0.3
	s0.5,0.1,0.8,0.3l15.3,15.3c0.2,0.2,0.3,0.5,0.3,0.8C60.2,30.3,60.1,30.5,59.9,30.8z M38.3,9.4L26,51.8c-0.2,0.6-0.8,0.9-1.3,0.7
	l-2-0.6c-0.6-0.2-0.9-0.8-0.7-1.3L34.2,8.2c0.2-0.6,0.8-0.9,1.3-0.7l2,0.6C38.1,8.2,38.4,8.8,38.3,9.4z M18.9,44.4l-1.6,1.6
	c-0.2,0.2-0.5,0.3-0.8,0.3c-0.3,0-0.5-0.1-0.8-0.3L0.4,30.8c-0.2-0.2-0.3-0.5-0.3-0.8c0-0.3,0.1-0.5,0.3-0.8l15.3-15.3
	c0.2-0.2,0.5-0.3,0.8-0.3c0.3,0,0.5,0.1,0.8,0.3l1.6,1.6c0.2,0.2,0.3,0.5,0.3,0.8c0,0.3-0.1,0.5-0.3,0.8L6,30l12.9,12.9
	c0.2,0.2,0.3,0.5,0.3,0.8C19.2,44,19.1,44.2,18.9,44.4z"/>
</svg>
