<?xml version="1.0" encoding="utf-8"?>
<!-- Generator: Adobe Illustrator 16.0.4, SVG Export Plug-In . SVG Version: 6.00 Build 0)  -->
<!DOCTYPE svg PUBLIC "-//W3C//DTD SVG 1.1//EN" "http://www.w3.org/Graphics/SVG/1.1/DTD/svg11.dtd">
<svg version="1.1" id="レイヤー_1" xmlns="http://www.w3.org/2000/svg" xmlns:xlink="http://www.w3.org/1999/xlink" x="0px"
	 y="0px" width="80px" height="80px" viewBox="0 0 80 80" enable-background="new 0 0 80 80" xml:space="preserve">
<path fill="#E4B8C5" d="M74.8,6.2v42.4c0,3.4-2.8,6.2-6.2,6.2H47.4c0,1.9,1,4.2,1.9,5.8c0.4,0.8,0.6,1.3,0.6,1.7
	c0,1.3-1.1,1.3-2.5,1.3h-20c-1.3,0-2.5,0-2.5-1.3c0-0.4,0.2-0.9,0.6-1.7c0.8-1.6,1.9-3.8,1.9-5.8H6.2c-3.4,0-6.2-2.8-6.2-6.2V6.2
	C0,2.8,2.8,0,6.2,0h62.3C72,0,74.8,2.8,74.8,6.2z M69.8,38.7V6.2c0-0.7-0.6-1.3-1.3-1.3H6.2C5.6,5,5,5.6,5,6.2v32.4
	c0,0.7,0.6,1.3,1.3,1.3h62.3C69.2,39.9,69.8,39.3,69.8,38.7z"/>
<path fill="#FFFFFF" d="M78,53.9c0,1.3-1.1,2.4-2.4,2.4H54.3c-1.3,0-2.4-1.1-2.4-2.4V19.1c0-1.3,1.1-2.4,2.4-2.4h21.3
	c1.3,0,2.4,1.1,2.4,2.4V53.9z"/>
<path fill="#E4B8C5" d="M80,17.5v40.6c0,3.1-2.5,5.5-5.5,5.5H54.8c-3.1,0-5.5-2.5-5.5-5.5V17.5c0-3.1,2.5-5.5,5.5-5.5h19.6
	C77.5,12,80,14.5,80,17.5z M75.6,53.7V20.5c0-0.6-0.5-1.1-1.1-1.1H54.8c-0.6,0-1.1,0.5-1.1,1.1v33.2c0,0.6,0.5,1.1,1.1,1.1h19.6
	C75.1,54.8,75.6,54.3,75.6,53.7z M66.2,60.8c0.4-0.4,0.7-1,0.7-1.6c0-1.2-1-2.2-2.2-2.2c-1.2,0-2.2,1-2.2,2.2c0,1.2,1,2.2,2.2,2.2
	C65.3,61.5,65.8,61.2,66.2,60.8z"/>
</svg>
