<?xml version="1.0" encoding="utf-8"?>
<!-- Generator: Adobe Illustrator 16.0.4, SVG Export Plug-In . SVG Version: 6.00 Build 0)  -->
<!DOCTYPE svg PUBLIC "-//W3C//DTD SVG 1.1//EN" "http://www.w3.org/Graphics/SVG/1.1/DTD/svg11.dtd">
<svg version="1.1" id="レイヤー_1" xmlns="http://www.w3.org/2000/svg" xmlns:xlink="http://www.w3.org/1999/xlink" x="0px"
	 y="0px" width="60px" height="60px" viewBox="0 0 60 60" enable-background="new 0 0 60 60" xml:space="preserve">
<path fill="#EF7B8E" d="M34,52.9c5-0.9,9.2-3.2,12.8-6.9c-0.1-0.1-0.2-0.1-0.4-0.2c-0.3,0-0.4-0.1-0.5-0.1c-0.4-0.2-0.7-0.3-0.9-0.3
	c0-0.3-0.1-0.7-0.4-0.8c-0.1-0.1-0.3-0.2-0.5-0.3c-0.4-0.3-0.4-0.3-0.7-0.5c-0.3-0.2-0.3-0.2-0.5-0.4c-0.1-0.1-0.3-0.1-0.3-0.1
	c-0.1,0-0.2,0-0.4,0l-0.1,0c-0.1,0-0.1,0-0.2,0.1c-0.1,0-0.1,0.1-0.2,0.1c-0.1,0-0.1,0.1-0.1,0.1c0,0,0,0.1,0,0.1
	c-0.5-0.4-0.9-0.7-1.3-0.8c-0.1,0-0.3-0.1-0.4-0.2c-0.3-0.2-0.5-0.3-0.7-0.3c-0.3,0-0.6,0.3-0.7,0.8c0,0.3,0,0.4-0.1,0.5
	c-0.2-0.1-0.2-0.3,0-0.7c0.3-0.6,0.1-0.9-0.3-0.8c-0.4,0.1-0.5,0.2-0.9,0.5c-0.2,0.1-0.3,0.2-0.3,0.3c-0.1,0-0.5,0.3-0.6,0.5
	c-0.1,0.1-0.1,0.3-0.2,0.4c-0.1,0.2-0.1,0.3-0.2,0.4c0-0.1-0.2-0.2-0.4-0.3c-0.3,0-0.4-0.1-0.4-0.2c0,0.3,0.1,0.7,0.1,1.3
	c0,0.6,0.1,1.1,0.2,1.4c0.2,0.8,0,1.3-0.4,1.7c-1.3,1.2-1.4,2.2-0.6,2.4c0,0.2-0.1,0.4-0.3,0.7C33.8,52.2,33.9,52.4,34,52.9z M40,21
	c0,0-0.1,0.1-0.3,0.3c-0.2,0.2-0.4,0.3-0.5,0.4c0,0,0.1-0.1,0.2-0.2c0-0.1,0.1-0.3,0.2-0.4c0-0.1,0.1-0.2,0.1-0.3
	c0.1-0.2,0.4-0.4,0.8-0.5c0.3-0.1,1-0.3,1.9-0.4c0.8-0.2,1.5-0.1,1.9,0.4c-0.1-0.1,0.7-0.9,0.9-0.9c0.1,0,0.3-0.1,0.5-0.2
	c0.3,0,0.5-0.1,0.5-0.3l0.1-0.8c-0.6,0-0.8-0.4-0.9-1c0,0-0.1,0.1-0.2,0.3c0-0.3-0.3-0.4-0.6-0.3c-0.2,0-0.3,0.1-0.3,0
	c-0.5-0.1-0.7-0.3-0.8-0.9c-0.1-0.6-0.1-0.7-0.5-0.9c-0.2-0.1-0.3-0.3-0.4-0.4c0,0,0-0.1-0.1-0.2c-0.1-0.1-0.1-0.3-0.3-0.4
	c-0.1,0-0.1-0.1-0.2-0.1c-0.1,0-0.4,0.3-0.5,0.5c-0.1,0.1-0.1,0.2-0.2,0.2c-0.1-0.1-0.3,0-0.4,0c0,0-0.1,0.1-0.2,0.1
	c-0.1,0.1-0.2,0.2-0.5,0.3c-0.1,0-0.3,0-0.3,0.1c0.7-0.3-0.3-0.5-0.6-0.5c0.4-0.2,0.3-0.7,0-0.9h0.2c0-0.2-0.5-0.4-0.9-0.6
	c-0.3-0.1-0.4-0.2-0.5-0.2c-0.4-0.3-2.1-0.5-2.4-0.4c-0.3,0.3-0.2,0.4,0,0.9c0.1,0.5,0.2,0.6-0.1,0.9c-0.2,0.2-0.3,0.3-0.3,0.4
	c0,0.2,0.2,0.4,0.5,0.5c0.7,0.4,0.4,1-0.2,1.4s-0.8,0.6-0.6,1.1c0.1,0.3,0.2,0.5,0.4,0.6c0.1,0.1,0.1,0.2-0.1,0.3
	c-0.1,0.1-0.3,0.2-0.4,0.3l-0.1,0.1c-0.5,0.3-1.1-0.4-1.2-1.2c-0.2-0.6-0.4-1-0.6-1.1c-0.5-0.2-0.9-0.2-1.1,0
	c-0.3-0.6-2-1.3-3.6-1.1c0.3,0-0.1-1.1-0.7-1c0.1-0.3,0.2-1,0.2-1.1c0.1-0.3,0.2-0.6,0.4-0.8c0,0,0.4-0.5,0.6-0.8
	c0.1-0.1,0.1-0.2,0-0.2c0.8,0.1,1.5,0,1.8-0.4c0.1-0.1,0.3-0.3,0.4-0.6c0.1-0.3,0.3-0.5,0.4-0.6c0.4-0.3,0.6-0.3,1.1,0
	c0.4,0.3,1,0.4,1.1-0.2c0-0.3-0.1-0.5-0.3-0.7c0.6,0,0-0.8-0.2-0.9c-0.3-0.1-0.6,0-1,0.2c-0.2,0.1-0.2,0.2,0.1,0.3
	c0,0-0.1,0.1-0.3,0.4c-0.4,0.6-0.8,1-1.2,0.5c0,0-0.1-0.2-0.2-0.5c-0.2-0.6-0.5-0.7-0.9,0.1c0.1-0.4-0.8-0.8-1.3-0.8
	c0.9-0.6-0.4-1.1-1-1.2c-0.3,0-0.6,0-0.7,0.1c-0.3,0.3-0.3,0.5,0,0.7c0.3,0.2,0.5,0.3,0.8,0.4c0.1,0,0.3,0.1,0.3,0.1
	c0.3,0.3,0.4,0.4,0.3,0.5c0,0-0.1,0.1-0.3,0.1c-0.3,0.1-0.6,0.2-0.7,0.3c-0.1,0.1-0.1,0.3,0,0.5c0.1,0.3,0,0.4-0.1,0.5
	c-0.1-0.1-0.2-0.3-0.3-0.7c-0.2-0.6,0.4-0.2-1.2-0.4l-0.4,0c-0.1,0-0.3,0-0.6,0.1c-0.6,0.1-1,0.1-1.2-0.3c-0.1-0.2-0.1-0.4,0-0.7
	c0-0.1,0.1-0.1,0.1-0.1c-0.1-0.1-0.2-0.2-0.4-0.4C22.7,8.1,22.6,8,22.5,8c-1.1,0.4-2.3,0.9-3.4,1.5c0.3,0,0.5-0.1,0.9-0.3
	C20.2,9.1,20.4,9,20.4,9c0.8-0.3,1.3-0.4,1.5-0.3l0.2-0.2c0.3,0.4,0.6,0.7,0.7,0.9c-0.2-0.1-0.5-0.1-1.1,0c-0.5,0.1-0.8,0.3-0.8,0.4
	c0.2,0.3,0.2,0.5,0.2,0.7c-0.1-0.1-0.2-0.2-0.4-0.4c-0.4-0.3-0.7-0.5-1.1-0.6c-0.4,0-0.7,0-0.8,0c-3.5,1.9-6.4,4.6-8.5,8.1
	c0.2,0.2,0.3,0.3,0.4,0.3c0.1,0,0.1,0.1,0.2,0.3c0,0.4,0,0.6,0.5,0.3c0.2,0.2,0.3,0.4,0.1,0.7c0,0,0.5,0.3,1.6,1
	c0.9,0.8,1,1.1,0.4,1.4c0-0.1-0.6-0.6-0.7-0.5c-0.1,0.3,0.1,1.2,0.4,1.1c-0.2,0-0.3,0.2-0.3,0.6c-0.1,0.4-0.1,0.8-0.1,1.3
	s0,0.8,0,0.9l0.1,0c-0.1,0.6,0.4,2.1,1,2c-0.3,0.1-0.1,0.6,0.7,1.6c0.1,0.2,0.3,0.3,0.3,0.3c0.1,0,0.2,0.1,0.4,0.3
	c0.4,0.3,0.7,0.5,0.9,0.8c0.1,0.1,0.2,0.4,0.4,0.8c0.1,0.4,0.3,0.7,0.5,0.9c0,0.1,0.1,0.4,0.4,0.7c0.3,0.3,0.4,0.6,0.4,0.8
	c0,0,0,0-0.1,0c0,0-0.1,0-0.1,0c0.1,0.2,0.3,0.3,0.6,0.5c0.3,0.2,0.5,0.3,0.5,0.5c0,0.1,0,0.2,0.1,0.4c0,0.3,0.1,0.6,0.4,0.5
	c0-0.5-0.3-1.2-0.9-2.3c-0.4-0.6-0.6-0.9-0.6-1.1c-0.1-0.1-0.1-0.3-0.2-0.6c-0.1-0.3-0.1-0.4-0.2-0.5c0.1,0,0.3,0.1,0.5,0.2
	c0.1,0,0.2,0.1,0.3,0.1c0.1,0,0.1,0.1,0.1,0.1c-0.1,0.3,0.2,0.9,0.5,1.3c0.3,0.4,0.9,1.1,1.1,1.2c0.1,0.1,0.3,0.4,0.5,0.7
	c0.2,0.3,0.2,0.5,0,0.5c0.4,0,1.1,0.6,1.3,1.1c0.1,0.2,0.2,0.5,0.3,0.9c0.1,0.9,0.2,1.1,0.5,1.3c0.1,0.2,0.3,0.3,0.4,0.4
	c0.3,0.1,0.9,0.4,1.1,0.5c0.1,0,0.4,0.2,0.7,0.4c0.7,0.4,1.1,0.6,1.3,0.6c0.1,0,0.3,0,0.5-0.1c0.2,0,0.4-0.1,0.5-0.1
	c0.4,0,0.7,0.1,1.1,0.5c0.3,0.4,0.6,0.7,0.8,0.8c0.9,0.5,1.5,0.6,2,0.4c0,0,0,0.1,0,0.3c0.1,0.3,0.4,0.8,0.6,1.1
	c0.1,0.1,0.1,0.3,0.2,0.3c0.1,0.1,0.3,0.3,0.7,0.5c0.3,0.2,0.5,0.4,0.7,0.5c0.1-0.1,0.2-0.2,0.3-0.3c-0.1,0.4,0.5,1.2,0.9,1.1
	c0.3-0.1,0.5-0.5,0.5-1.2c-0.8,0.4-1.3,0.1-1.8-0.7c0,0,0-0.1-0.1-0.2c-0.1-0.2-0.2-0.4-0.3-0.6c0-0.2,0-0.4,0.2-0.4
	c0.4,0,0.4-0.1,0.3-0.6c-0.1-0.2-0.1-0.4-0.1-0.5c0-0.2-0.1-0.4-0.4-0.7c-0.3-0.3-0.4-0.5-0.4-0.5c-0.3,0.4-0.9,0.4-1.2,0
	c0,0,0,0.1,0,0.2c0,0.1-0.1,0.2-0.1,0.3c-0.3,0-0.5,0-0.5,0c0-0.1,0.1-0.3,0.1-0.7c0.1-0.7,0.1-0.8,0.3-1.2c0.2-0.4,0.4-0.7,0.4-1
	c0-0.3-0.2-0.5-0.8-0.4c-0.5,0-0.8,0.3-0.9,0.7c0,0.1-0.1,0.2-0.1,0.4c-0.1,0.4-0.2,0.5-0.5,0.7c-0.3,0.1-1.4,0.1-1.7-0.1
	c-0.6-0.4-1.2-1.6-1.2-2.4c0-0.3,0-0.6,0.1-1c0.1-0.8,0.2-1-0.1-1.8c0.1,0,0.2-0.2,0.3-0.4c0.1-0.2,0.3-0.3,0.4-0.4
	c0.1,0,0.2-0.1,0.3-0.1c0.1,0,0.2-0.1,0.3-0.3c0,0-0.3-0.2-0.3-0.2c0.2,0.1,0.5,0,1.1-0.1c0.5-0.1,0.8-0.1,1,0.1
	c0.4,0.3,0.6,0.3,0.8-0.1c0,0,0-0.1-0.1-0.4c-0.1-0.2-0.1-0.4,0-0.5c0.1,0.7,0.5,0.8,1.1,0.3c0.1,0.1,0.3,0.1,0.6,0.2
	c0.3,0,0.5,0.1,0.6,0.2c0.1,0,0.1,0.1,0.3,0.2c0.2,0.2,0.2,0.2,0.4,0.1c0.1,0,0.2-0.1,0.3-0.2c0.3,0.3,0.4,0.6,0.4,0.9
	c0.3,1,0.5,1.5,0.7,1.6c0.3,0.1,0.5,0.1,0.6-0.3c0-0.4,0-0.6-0.1-0.9l0-0.3c0-0.2,0-0.4,0-0.7l0-0.3c-0.7-0.1-0.9-0.7-0.6-1.1
	c0.1-0.2,0.3-0.4,0.5-0.7c0,0,0.1-0.1,0.3-0.1c0.3-0.1,0.8-0.3,1-0.5c0.5-0.5,0.7-0.9,0.5-1.3c0.2,0,0.3-0.1,0.4-0.3
	c0,0-0.1,0-0.2-0.1c-0.1-0.1-0.2-0.1-0.3-0.2c-0.1,0-0.1-0.1-0.2-0.1c0.2-0.1,0.3-0.3,0.1-0.6c0.1-0.1,0.2-0.2,0.3-0.4
	c0-0.2,0.1-0.3,0.3-0.4c0.4,0.6,1.1-0.1,0.8-0.5c0.1-0.2,0.4-0.3,0.8-0.4c0.4-0.1,0.6-0.2,0.7-0.3C39,25,39,24.8,39,24.4
	c0-0.4,0.1-0.6,0.7-0.8c0.3-0.1,0.4-0.1,0.5-0.2l0.6-0.4c0.1-0.1,0.1-0.1,0-0.1c0.9,0.1,1.7-0.7,0.9-1.1c0.1-0.3-0.2-0.4-0.7-0.5
	c0.1,0,0.2,0,0.4,0c0.4,0,1.2-0.3,0.1-0.6C41.1,20.5,40.6,20.6,40,21z M16,5.8c4.3-2.5,8.9-3.7,14-3.7c10.1,0,19.2,5.3,24.2,13.9
	c2.5,4.3,3.7,9,3.7,14c0,10.1-5.3,19.2-13.9,24.2c-4.3,2.5-9,3.7-14,3.7c-10.1,0-19.2-5.3-24.2-13.9c-2.5-4.3-3.7-8.9-3.7-14
	C2.1,19.9,7.4,10.8,16,5.8z"/>
</svg>
