<?xml version="1.0" encoding="utf-8"?>
<!-- Generator: Adobe Illustrator 16.0.4, SVG Export Plug-In . SVG Version: 6.00 Build 0)  -->
<!DOCTYPE svg PUBLIC "-//W3C//DTD SVG 1.1//EN" "http://www.w3.org/Graphics/SVG/1.1/DTD/svg11.dtd">
<svg version="1.1" id="レイヤー_1" xmlns="http://www.w3.org/2000/svg" xmlns:xlink="http://www.w3.org/1999/xlink" x="0px"
	 y="0px" width="60px" height="60px" viewBox="0 0 60 60" enable-background="new 0 0 60 60" xml:space="preserve">
<path fill="#EF7B8E" d="M59.9,31.4c0,4-0.7,7.7-2.2,11.3L57,44.5l-6.6,1.2c-1,4-4.7,6.8-8.9,6.8v1.1c0,0.7-0.5,1.1-1.1,1.1H38
	c-0.7,0-1.2-0.5-1.2-1.1V32.9c0-0.7,0.5-1.1,1.2-1.1h2.3c0.7,0,1.1,0.5,1.1,1.1v1.1c3.4,0,6.4,1.8,8,4.7l2.4-0.4
	c0.7-2.3,1-4.6,1-6.9c0-7.1-4.5-13.8-11.6-17.5C37.8,12,34,11.1,30,11.1c-8,0-15.6,4-19.8,10.3C8.1,24.5,7,27.9,7,31.4
	c0,2.3,0.4,4.7,1,6.9l2.4,0.4c1.6-2.9,4.6-4.7,8-4.7v-1.1c0-0.7,0.5-1.1,1.1-1.1H22c0.7,0,1.1,0.5,1.1,1.1v20.7
	c0,0.7-0.5,1.1-1.1,1.1h-2.3c-0.7,0-1.1-0.5-1.1-1.1v-1.1c-4.2,0-7.8-2.8-8.9-6.8L3,44.5l-0.7-1.8c-1.4-3.6-2.2-7.3-2.2-11.3
	c0-7.2,3.5-14.3,8.8-19.2c5.4-4.9,13.1-8,21-8s15.7,3.2,21,8C56.4,17.2,59.9,24.2,59.9,31.4z"/>
</svg>
