<?xml version="1.0" encoding="utf-8"?>
<!-- Generator: Adobe Illustrator 16.0.4, SVG Export Plug-In . SVG Version: 6.00 Build 0)  -->
<!DOCTYPE svg PUBLIC "-//W3C//DTD SVG 1.1//EN" "http://www.w3.org/Graphics/SVG/1.1/DTD/svg11.dtd">
<svg version="1.1" id="レイヤー_1" xmlns="http://www.w3.org/2000/svg" xmlns:xlink="http://www.w3.org/1999/xlink" x="0px"
	 y="0px" width="60px" height="60px" viewBox="0 0 60 60" enable-background="new 0 0 60 60" xml:space="preserve">
<path fill="#EF7B8E" d="M26,55.7h29.8V17.4H43v13.8c0,1.8-1.4,3.2-3.2,3.2H26V55.7z M24,29l10.5-10.5V4.7H21.7v13.8
	c0,1.8-1.4,3.2-3.2,3.2H4.7V43h17v-8.5C21.7,32.7,22.7,30.2,24,29z M17.4,17.4V7.5l-9.9,9.9H17.4z M38.7,30.2v-9.9l-9.9,9.9H38.7z
	 M43,13.2h13.8c1.8,0,3.2,1.4,3.2,3.2v40.4c0,1.8-1.4,3.2-3.2,3.2H24.9c-1.8,0-3.2-1.4-3.2-3.2v-9.6H3.6c-1.8,0-3.2-1.4-3.2-3.2
	V21.7c0-1.8,1-4.2,2.3-5.5L16.2,2.7c1.2-1.2,3.7-2.3,5.5-2.3h13.8c1.8,0,3.2,1.4,3.2,3.2v10.9C40.2,13.6,41.6,13.2,43,13.2z"/>
</svg>
