<svg xmlns="http://www.w3.org/2000/svg" viewBox="0 0 800 800"><defs><style>.a{fill:#fff;opacity:.2}</style></defs><title>アートボード 1</title><path class="a" d="M648.87 55.128l66.185 66.186-66.178 66.178-66.186-66.185z"/><path class="a" d="M608.647 124.815l36.7 36.699-36.728 36.727-36.699-36.7zm-23.854 249.883l47.8 47.8-47.807 47.807-47.8-47.8zM271.511 243.247l47.8 47.8-47.807 47.808-47.8-47.8zM162.688 523.204l47.8 47.8-47.807 47.808-47.8-47.8zM453.193 254.26l36.699 36.698-36.728 36.727-36.698-36.699zM60.949 186.249l36.699 36.699-36.728 36.727-36.698-36.7zM271.482 19.208l36.698 36.699-36.727 36.727-36.699-36.699z"/><path class="a" d="M331.75 8.145l47.8 47.8-47.808 47.808-47.8-47.8zm410.265 526.117l36.7 36.698-36.728 36.728-36.699-36.7zM442.918 444.51l36.699 36.698-36.727 36.727-36.7-36.699zm-76.122 190.186l47.8 47.8-47.807 47.808-47.8-47.8zm-73.728-331.895l21.566 21.567-21.538 21.538-21.567-21.567zm416.963.063l21.567 21.567-21.539 21.539-21.566-21.567zM52.013 394.53l21.567 21.567-21.539 21.538-21.566-21.567zm557.472 272.952l21.567 21.567-21.539 21.538-21.566-21.566zM132.77 87.2l21.567 21.566-21.538 21.539-21.567-21.567z"/></svg>