<?xml version="1.0" encoding="utf-8"?>
<!-- Generator: Adobe Illustrator 16.0.4, SVG Export Plug-In . SVG Version: 6.00 Build 0)  -->
<!DOCTYPE svg PUBLIC "-//W3C//DTD SVG 1.1//EN" "http://www.w3.org/Graphics/SVG/1.1/DTD/svg11.dtd">
<svg version="1.1" id="レイヤー_1" xmlns="http://www.w3.org/2000/svg" xmlns:xlink="http://www.w3.org/1999/xlink" x="0px"
	 y="0px" width="60px" height="60px" viewBox="0 0 60 60" enable-background="new 0 0 60 60" xml:space="preserve">
<path fill="#EF7B8E" d="M28,26c0,1.1-0.9,2-2,2H2c-1.1,0-2-0.9-2-2V2c0-1.1,0.9-2,2-2h24c1.1,0,2,0.9,2,2V26z"/>
<path fill="#509DC5" d="M60,26c0,1.1-0.9,2-2,2H34c-1.1,0-2-0.9-2-2V2c0-1.1,0.9-2,2-2h24c1.1,0,2,0.9,2,2V26z"/>
<path fill="#59B798" d="M28,58c0,1.1-0.9,2-2,2H2c-1.1,0-2-0.9-2-2V34c0-1.1,0.9-2,2-2h24c1.1,0,2,0.9,2,2V58z"/>
<path fill="#768791" d="M60,58c0,1.1-0.9,2-2,2H34c-1.1,0-2-0.9-2-2V34c0-1.1,0.9-2,2-2h24c1.1,0,2,0.9,2,2V58z"/>
</svg>
