<svg xmlns="http://www.w3.org/2000/svg" width="174.84" height="17.28" viewBox="0 0 174.84 17.28"><path d="M6.6 17.28c4.2 0 6.36-2.16 6.36-4.92 0-2.64-1.56-4.08-4.92-4.68L5.4 7.2C3.6 6.864 2.88 6 2.88 4.92c0-1.32 1.2-2.52 3.48-2.52 2.4 0 3.84 1.44 3.84 3h2.52c0-3-2.16-5.4-6.36-5.4-3.72 0-6 2.16-6 4.92 0 2.28 1.32 3.96 3.96 4.44l3.24.6c1.92.36 2.88 1.2 2.88 2.4 0 1.44-1.08 2.52-3.84 2.52-2.52 0-4.08-1.44-4.08-3H0c0 3 2.4 5.4 6.6 5.4zm7.56-.24h2.76l1.44-3.96h7.68l1.44 3.96h2.76L24.12.24h-3.84zm5.04-6.24l2.76-7.68h.48l2.76 7.68zm13.44 6.24h2.52V3.96h.48l6.84 13.08h3.72V.24h-2.52v13.08h-.48L36.36.24h-3.72zm25.08.24c4.44 0 8.04-3.48 8.04-8.64S62.16 0 57.72 0s-8.04 3.48-8.04 8.64 3.6 8.64 8.04 8.64zm0-2.4c-3.12 0-5.52-2.4-5.52-6.24s2.4-6.24 5.52-6.24 5.52 2.4 5.52 6.24-2.4 6.24-5.52 6.24zm18.84 2.4a6.57 6.57 0 0 0 5.28-2.4h.12l.24 2.16h2.04V8.28h-7.2v2.04h4.68v.12c0 2.16-2.28 4.44-5.16 4.44-3.12 0-5.52-2.4-5.52-6.24s2.4-6.24 5.52-6.24a5.153 5.153 0 0 1 4.92 3.36h2.64A7.634 7.634 0 0 0 76.56 0c-4.44 0-8.04 3.48-8.04 8.64s3.6 8.64 8.04 8.64zm11.64-.24h2.52v-6h1.2l6 6h3.24l-6-6h.6c2.76 0 4.92-2.16 4.92-5.4S98.52.24 95.76.24H88.2zm2.52-8.4v-6h4.92a2.749 2.749 0 0 1 2.52 3 2.749 2.749 0 0 1-2.52 3zm11.88 8.4h2.76l1.44-3.96h7.68l1.44 3.96h2.76L112.56.24h-3.84zm5.04-6.24l2.76-7.68h.48l2.76 7.68zm13.44 6.24h2.52v-6h5.04c2.76 0 4.92-2.16 4.92-5.4s-2.16-5.4-4.92-5.4h-7.56zm2.52-8.4v-6h4.92a2.749 2.749 0 0 1 2.52 3 2.749 2.749 0 0 1-2.52 3zm13.44 8.4h2.52V9.72h8.52v7.32h2.52V.24h-2.52v7.08h-8.52V.24h-2.52zm17.76 0h2.52V.24h-2.52zm4.92 0h2.88l4.44-6.36h.48l4.44 6.36h2.88l-6-8.64 5.64-8.16h-2.88l-4.08 5.88h-.48L162.96.24h-2.88l5.64 8.16z"/></svg>